<?xml version="1.0" encoding="utf-8"?>
<!-- Generator: Adobe Illustrator 22.0.1, SVG Export Plug-In . SVG Version: 6.00 Build 0)  -->
<svg version="1.1" id="Layer_1" xmlns="http://www.w3.org/2000/svg" xmlns:xlink="http://www.w3.org/1999/xlink" x="0px" y="0px"
	 viewBox="0 -0.001 720 503.998" enable-background="new 0 -0.001 720 503.998" xml:space="preserve">
<g>
	<rect x="-0.078" y="-0.037" fill="#FAF3F3" width="720" height="396.394"/>
</g>
<g>
	<rect x="-0.031" y="-0.037" fill="#ACC8DD" width="720.031" height="435.866"/>
</g>
<g>
	<polygon fill="#87B2C4" points="394.599,274.293 463,218.792 499,235.778 546,200.779 618.846,231.605 488,288.428 	"/>
</g>
<g>
	<polygon fill="#87B2C4" points="19.348,323.576 141,280.696 179,296.039 247,256.817 310,286.61 342,265.642 421,310.949 
		211,354.744 41,364.398 	"/>
</g>
<g>
	<polygon fill="#72A5B2" points="141,280.696 179,296.108 189,319.096 169.096,320.934 	"/>
</g>
<g>
	<polygon fill="#72A5B2" points="247,256.817 330.75,294.919 307,310.424 286.701,316.754 286.701,316.754 	"/>
</g>
<g>
	<polygon fill="#2F5377" points="720,203.999 585,216.172 500,262.933 351.363,277.969 308.591,306.818 266.413,318.925 
		172.551,318.925 94.729,339.463 0,309.855 0,422.213 720,405.511 	"/>
</g>
<g>
	<path fill="#213A1F" d="M719.809,317.632c0,0-320.555,17.038-394.198,31.062S0,397.777,0,397.777l-0.078,106.221
		c0,0,143.346-12.642,288.578-21.704c98.407-6.14,145.305-3.687,197-11.84c68.877-10.863,127.33-20.652,135.5-18.935
		c28.605,6.01,98.882-46.739,98.882-46.739L719.809,317.632z"/>
</g>
<g>
	<polygon fill="#08251D" points="357.742,437.003 341.861,440.34 321.641,444.419 204.962,450.017 316.962,439.481 393.262,428.889 
			"/>
</g>
<g>
	<polyline fill="#08251D" points="435.314,394.24 310.368,398.716 156.061,414.483 305.684,402.463 442.163,394.094 	"/>
</g>
<g>
	<polygon fill="#08251D" points="0.573,466.996 96.216,466.331 58,459.992 250.381,463.594 190.345,474.298 153.104,491.65 
		34.717,501.029 -0.078,503.997 	"/>
</g>
<g>
	<polygon fill="#08251D" points="719.965,351.009 641.244,365.258 651.102,367.413 634.726,383.006 719.922,371.103 	"/>
</g>
<g>
	<polyline fill="#08251D" points="572.049,340.96 447.103,345.436 292.795,361.203 442.418,349.183 578.898,340.814 	"/>
</g>
<g>
	<path fill="#72A5B2" d="M463,218.792l36,16.986c0,0,7.587,23.532,8.309,23.135c0.722-0.397-7.309,4.021-7.309,4.021L463,218.792z"
		/>
</g>
<g>
	<polygon fill="#52768E" points="596.554,216.853 505.448,266.25 541.533,265.636 	"/>
</g>
<g>
	<polygon fill="#08251D" points="449.667,416.943 322,426.731 497.761,401.748 457,396.003 681.47,376.071 594.139,403.986 	"/>
</g>
<g>
	<g>
		<polygon fill="#03190E" points="451.38,424.414 450.061,426.393 441.681,417.95 423.863,392.355 425.974,389.188 438.981,409.862 
					"/>
	</g>
	<g>
		<path fill="#03190E" d="M427.821,386.417l-1.847,2.771l6.203,6.135l8.387,12.164l11.652,15.674l1.922-2.057
			c0,0-8.685-12.073-11.068-17.377s-3.968-18.366-4.035-23.842s-7.059,3.3-7.059,3.3l5.051,11.295l6.697,13.971l-12.406-15.7
			L427.821,386.417z"/>
	</g>
	<g>
		<path fill="#03190E" d="M448.733,374.054l-7.257,3.168c0,0,1.621,12.598,3.082,17.681c1.694,5.893,8.119,20.646,8.119,20.646
			l1.561,3.718l3.035-1.408c0,0-1.254-2.601-2.882-7.543c0,0-1.797-7.067-2.069-10.622c-0.23-3.005-0.048-7.192,1.107-11.513
			c1.155-4.321,2.87-8.61,4.211-10.765s2.242-5.366,2.242-5.366l-7.653,1.475c0,0,2.089,0.725,0.441,8.489s-4.154,11.81-4.154,11.81
			l-0.045-8.511L448.733,374.054z"/>
	</g>
	<g>
		<path fill="#03190E" d="M463.605,372.912l4.898,0.215l-3.843,31.36l6.771-12.448l3.252-17.176l2.507,1.671l-4.615,16.077
			c0,0-5.54,9.743-6.001,13.152c-0.461,3.409-0.46,11.7-0.724,12.381c-0.264,0.682-3.013-0.197-3.013-0.197l0.369-26.434
			L463.605,372.912z"/>
	</g>
	<g>
		<polygon fill="#03190E" points="462.697,372.688 460.388,372.864 458.79,417.727 461.363,417.441 		"/>
	</g>
	<g>
		<path fill="#03190E" d="M481.369,378.271c0,0-5.976,30.701-6.196,31.603c-0.22,0.902-2.307,13.041-2.505,13.195
			c-0.198,0.154,1.892,1.737,1.892,1.737l5.759-15.505c0,0,5.848-12.492,6.836-16.407c0.989-3.915,2.857-8.863,2.857-8.863
			l-3.233-2.155c0,0-0.526,7.939-2.197,12.448s-6.133,12.492-6.287,12.58c-0.154,0.088,2.241-13.085,2.878-14.471
			c0.638-1.386,3.626-12.448,3.626-12.448L481.369,378.271z"/>
	</g>
	<g>
		<path fill="#03190E" d="M494.213,387.879"/>
	</g>
	<g>
		<polygon fill="#03190E" points="477.916,377.018 479.961,378.381 474.731,399.098 470.864,421.771 469.347,420.188 
			472.773,398.317 		"/>
	</g>
	<g>
		<path fill="#03190E" d="M492.161,384.873c-0.344,0.338-12.283,31.771-12.377,31.899c-0.093,0.128-3.319,9.258-3.319,9.258
			l1.025,0.748c0,0,5.432-11.348,5.509-11.587c0.076-0.239,8.982-18.77,10.839-21.046c1.857-2.277,2.15-2.947,2.15-2.947
			L492.161,384.873z"/>
	</g>
	<g>
		<path fill="#03190E" d="M496.247,391.691c0,0-3.652,8.355-5.747,12.77c-2.04,4.3-5.597,10.265-5.901,11.027
			c0,0-5.738,11.301-5.882,11.516c-0.144,0.216,0.585,0.98,0.585,0.98s8.409-15.192,9.685-16.106
			c1.276-0.913,9.133-11.274,9.571-11.502S497.32,392.51,496.247,391.691z"/>
	</g>
</g>
<g opacity="0.47">
	<polygon fill="#244560" points="351.363,277.969 417.5,318.98 491.359,311.666 406.224,272.42 	"/>
</g>
<g>
	<polygon fill="#1E3F56" points="719.474,267.293 607.702,301.964 430.333,316.754 331.095,329.699 185.752,370.449 
		355.667,350.273 609.096,329.699 719.474,321.158 	"/>
</g>
<g>
	<g>
		<path fill="#0B3D2C" d="M427.781,428.94l11.238,3.902l0.315-2.358l-17.532-7.624l-1.025-0.635c-0.25,0.806-0.463,1.629-0.623,2.47
			L427.781,428.94z"/>
		<path fill="#154938" d="M400.529,413.778l19.624,10.919c0.16-0.84,0.373-1.664,0.623-2.47l-19.743-12.221L400.529,413.778z"/>
	</g>
	<g>
		<path fill="#154938" d="M407.399,410.856l-5.925-4.152l-0.441,3.301l8.267,2.785l12.405,6.975
			c0.257-0.569,0.537-1.117,0.839-1.646L407.399,410.856z"/>
		<path fill="#0B3D2C" d="M425.442,419.508l-2.897-1.389c-0.302,0.53-0.583,1.078-0.839,1.646l0.474,0.266l17.354,8.96l0.822-2.693
			c0,0-11.561-6.201-16.67-10.034c-0.271,0.403-0.533,0.814-0.786,1.234L425.442,419.508z"/>
		<path fill="#154938" d="M408.678,395.908c-2.466-4.89-4.891,6.066-4.891,6.066l9.5,7.927l9.613,7.598
			c0.253-0.42,0.514-0.831,0.786-1.234c-0.33-0.248-0.635-0.487-0.907-0.713C418.308,411.835,411.144,400.797,408.678,395.908z"/>
	</g>
	<g>
		<path fill="#154938" d="M425.254,397.038c-0.861-4.389-1.205-8.995-0.948-11.521c0.258-2.525-0.344-5.806-0.344-5.806
			l-6.226,4.687c0,0,2.195-0.266,4.126,7.431s1.458,12.434,1.458,12.434l-3.78-7.625l-4.712-10.23l-5.127,6.034
			c0,0,6.991,10.604,10.537,14.528c1.377,1.523,3.667,3.706,6.103,5.935c1.199-1.31,2.507-2.509,3.913-3.59
			c-0.355-0.518-0.678-1.011-0.936-1.451C427.791,405.268,426.114,401.428,425.254,397.038z"/>
		<path fill="#0B3D2C" d="M436.603,421.952l3.036,2.654l2.107-2.598c0,0-2.269-1.785-5.903-5.509c0,0-3.461-4.079-5.59-7.181
			c-1.407,1.081-2.714,2.28-3.913,3.59C431.182,417.337,436.603,421.952,436.603,421.952z"/>
	</g>
	<g>
		<path fill="#154938" d="M432.179,376.891l-4.494,1.959l7.815,16.884l4.017,8.511c0.624-0.234,1.257-0.453,1.896-0.658
			L432.179,376.891z"/>
		<path fill="#154938" d="M441.48,376.134l-2.986-0.399l4.626,16.858l-0.459,10.614c0.522-0.15,1.047-0.29,1.577-0.421
			c-0.195-4.455,0.161-10.182,0.161-10.182L441.48,376.134z"/>
		<path fill="#0B3D2C" d="M442.507,406.75l-1.094-3.164c-0.639,0.205-1.271,0.424-1.896,0.658l7.266,15.397
			c0,0,2.856-0.418,2.793-1.147c-0.063-0.728-3.707-8.175-4.79-11.44c-0.308-0.929-0.472-2.499-0.549-4.269
			c-0.53,0.131-1.055,0.271-1.577,0.421L442.507,406.75z"/>
	</g>
	<g>
		<path fill="#0B3D2C" d="M443.052,421.222l2.186-1.388l-6.856-15.143c-0.763,0.313-1.515,0.645-2.251,1.004L443.052,421.222z"/>
		<path fill="#154938" d="M424.774,380.22l11.356,25.475c0.736-0.359,1.488-0.691,2.251-1.004l-11.61-25.644L424.774,380.22z"/>
	</g>
	<g>
		<path fill="#0B3D2C" d="M458.625,401.494c-0.894-0.05-1.789-0.077-2.684-0.08c-0.052,0.909-0.1,1.48-0.124,1.516
			c-0.022,0.032-0.212-0.558-0.497-1.516c-0.817,0.007-1.633,0.038-2.447,0.084c0.821,3.077,1.394,5.239,1.445,5.471
			c0.199,0.907,3.658,12.729,3.548,12.954c-0.11,0.225,2.462,0.729,2.462,0.729l-1.639-16.458
			C458.688,404.194,458.67,403.122,458.625,401.494z"/>
		<path fill="#154938" d="M452.044,388.666c-0.036-1.525-2.212-12.775-2.212-12.775l-3.835-0.033c0,0,4.492,16.705,6.876,25.64
			c0.814-0.047,1.63-0.077,2.447-0.084C454.3,397.988,452.072,389.858,452.044,388.666z"/>
		<path fill="#154938" d="M457.62,386.451c-0.832-3.951-1.328-9.217-1.328-9.217l-3.851-0.515c0,0,3.015,7.363,3.496,12.147
			c0.363,3.619,0.165,9.724,0.004,12.547c0.895,0.003,1.79,0.03,2.684,0.08C458.51,397.274,458.22,389.302,457.62,386.451z"/>
	</g>
	<g>
		<path fill="#08251D" d="M461.757,378.845"/>
	</g>
	<g>
		<path fill="#0B3D2C" d="M453.616,418.795l2.059,0.755l-5.251-17.857c-0.672,0.073-1.341,0.163-2.007,0.264L453.616,418.795z"/>
		<path fill="#154938" d="M444.781,376.575l-2.436-0.326l4.74,21.393l1.332,4.314c0.666-0.1,1.335-0.191,2.007-0.264l-1.238-4.21
			L444.781,376.575z"/>
	</g>
	<g>
		<path fill="#154938" d="M463.646,402.028c0.003-6.371,0.097-15.547,0.527-17.39c0.668-2.861,0.636-3.591,0.636-3.591l-6.217-4
			c-0.105,0.296,1.169,14.614,2.062,24.599C461.657,401.742,462.654,401.872,463.646,402.028z"/>
		<path fill="#0B3D2C" d="M463.646,402.028c-0.992-0.155-1.989-0.286-2.991-0.383c0.477,5.339,0.846,9.44,0.836,9.494
			c-0.028,0.156,1.087,9.775,1.087,9.775l1.249,0.221c0,0-0.106-12.581-0.143-12.829
			C463.671,408.218,463.645,405.55,463.646,402.028z"/>
	</g>
	<g>
		<path fill="#154938" d="M467.607,402.7c0.745-1.381,3.25-14.141,3.544-14.537c0.293-0.396-4.568-6.523-5.893-6.787
			c0,0,0.39,9.11,0.449,13.997c0.026,2.142-0.077,4.718-0.191,6.983c0.688,0.135,1.373,0.28,2.052,0.443
			C467.581,402.765,467.594,402.725,467.607,402.7z"/>
		<path fill="#0B3D2C" d="M467.568,402.798c-0.679-0.163-1.364-0.309-2.052-0.443c-0.14,2.767-0.299,5.066-0.265,5.516
			c0,0-0.189,12.673-0.224,12.93c-0.034,0.257,0.957,0.624,0.957,0.624S466.832,404.694,467.568,402.798z"/>
	</g>
</g>
<g>
	<g>
		<g>
			<g>
				<path fill="#7F574F" d="M544.23,299.798c-1.126,0.215-2.253,0.469-3.38,0.817v56.245l3.38-3.38V299.798z"/>
			</g>
		</g>
		<g>
			<g>
				<path fill="#664039" d="M540.85,249.893v50.723c1.126-0.349,2.253-0.603,3.38-0.817v-49.905H540.85z"/>
			</g>
		</g>
		<g>
			<g>
				<path fill="#995A50" d="M542.54,249.893h-1.69v50.723c0.564-0.174,1.127-0.326,1.69-0.459V249.893z"/>
			</g>
		</g>
		<g>
			<g>
				<path fill="#D09C92" d="M542.54,300.157c-0.563,0.133-1.126,0.285-1.69,0.459v56.245l1.69-1.69V300.157z"/>
			</g>
		</g>
	</g>
	<g>
		<g>
			<polygon fill="#7A8956" points="542.854,209.065 532.018,254.303 543.628,253.529 531.243,255.657 531.243,256.818 
				543.628,255.657 543.628,259.527 530.276,262.237 525.439,281.006 543.628,277.329 543.561,280.058 525.439,283.134 
				524.471,285.843 543.628,286.617 			"/>
		</g>
	</g>
	<g>
		<g>
			<polygon fill="#505B2E" points="567.631,287.714 543.628,285.497 542.854,209.065 551.368,238.284 544.982,238.09 
				551.755,240.218 552.291,241.952 546.143,241.766 552.529,243.121 559.108,267.501 543.628,266.147 543.628,268.275 
				560.868,272.84 			"/>
		</g>
	</g>
	<g>
		<g>
			<polygon fill="#7A8956" points="542.854,288.165 542.854,292.034 523.311,292.034 			"/>
		</g>
	</g>
	<g>
		<g>
			<polygon fill="#4E5E47" points="564.041,288.552 543.628,286.617 543.628,288.553 565.05,291.829 			"/>
		</g>
	</g>
	<g>
		<g>
			<polygon fill="#4E5E47" points="570.764,318.345 544.078,313.753 543.887,315.679 571.769,321.737 			"/>
		</g>
	</g>
	<g>
		<g>
			<polygon fill="#96A364" points="543.323,261.128 529.784,264.145 528.919,267.505 543.4,264.145 			"/>
		</g>
	</g>
	<g>
		<g>
			<polygon fill="#424922" points="543.178,243.133 543.178,243.423 543.178,245.319 553.575,246.997 553.35,245.794 			"/>
		</g>
	</g>
	<g>
		<g>
			<polygon fill="#96A364" points="543.145,237.79 535.645,239.413 535.977,238.069 543.145,236.107 			"/>
		</g>
	</g>
	<g>
		<g>
			<polygon fill="#424922" points="543.468,269.691 543.504,273.222 563.232,278.01 561.918,275.137 			"/>
		</g>
	</g>
	<g>
		<g>
			<polygon fill="#424922" points="543.178,231.475 549.904,233.258 549.698,232.554 543.009,229.589 			"/>
		</g>
	</g>
	<g>
		<polyline fill="#505B2E" points="544.23,290.1 569.11,293.856 576.797,317.745 544.23,311.295 544.23,290.1 		"/>
	</g>
	<g>
		<polygon fill="#424922" points="544.23,292.778 544.23,295.487 571.426,301.053 570.281,297.495 		"/>
	</g>
	<g>
		<polygon fill="#7A8956" points="542.54,294.824 522.811,296.454 520.343,305.008 542.54,300.616 		"/>
	</g>
	<g>
		<polygon fill="#7A8956" points="542.54,303.922 520.343,308.666 518.07,313.594 542.54,306.032 		"/>
	</g>
</g>
<g>
	<g>
		<g>
			<g>
				<path fill="#7F574F" d="M708.778,282.477c-1.126,0.215-2.253,0.469-3.38,0.817v56.245l3.38-3.38V282.477z"/>
			</g>
		</g>
		<g>
			<g>
				<path fill="#664039" d="M705.398,232.572v50.723c1.126-0.349,2.253-0.603,3.38-0.817v-49.905H705.398z"/>
			</g>
		</g>
		<g>
			<g>
				<path fill="#995A50" d="M707.088,232.572h-1.69v50.723c0.563-0.174,1.127-0.326,1.69-0.459V232.572z"/>
			</g>
		</g>
		<g>
			<g>
				<path fill="#D09C92" d="M707.088,282.835c-0.563,0.133-1.126,0.285-1.69,0.459v56.245l1.69-1.69V282.835z"/>
			</g>
		</g>
	</g>
	<g>
		<g>
			<polygon fill="#7A8956" points="707.401,191.744 696.565,236.982 708.175,236.208 695.791,238.336 695.791,239.497 
				708.175,238.336 708.175,242.206 694.824,244.915 689.986,263.684 708.175,260.008 708.109,262.737 689.986,265.813 
				689.019,268.521 708.175,269.296 			"/>
		</g>
	</g>
	<g>
		<g>
			<polygon fill="#505B2E" points="708.176,250.954 708.176,248.826 719.657,249.83 719.657,235.364 717.076,225.799 
				710.691,224.445 716.839,224.631 716.302,222.897 709.53,220.768 715.915,220.962 707.401,191.744 708.176,268.175 
				719.657,269.236 719.657,253.994 			"/>
		</g>
	</g>
	<g>
		<g>
			<polygon fill="#7A8956" points="707.401,270.843 707.401,274.713 687.858,274.713 			"/>
		</g>
	</g>
	<g>
		<g>
			<polygon fill="#4E5E47" points="708.175,269.296 708.175,271.231 719.657,272.987 719.657,270.384 			"/>
		</g>
	</g>
	<g>
		<g>
			<polygon fill="#4E5E47" points="708.625,296.431 708.434,298.357 719.657,300.796 719.657,298.33 			"/>
		</g>
	</g>
	<g>
		<g>
			<polygon fill="#96A364" points="707.871,243.807 694.332,246.823 693.466,250.183 707.948,246.823 			"/>
		</g>
	</g>
	<g>
		<g>
			<polygon fill="#424922" points="707.725,225.812 707.725,226.102 707.725,227.997 718.122,229.675 717.898,228.472 			"/>
		</g>
	</g>
	<g>
		<g>
			<polygon fill="#96A364" points="707.692,220.469 700.193,222.092 700.524,220.747 707.692,218.785 			"/>
		</g>
	</g>
	<g>
		<g>
			<polygon fill="#424922" points="708.016,252.369 708.052,255.9 719.657,258.717 719.657,255.806 			"/>
		</g>
	</g>
	<g>
		<g>
			<polygon fill="#424922" points="707.725,214.154 714.451,215.936 714.246,215.233 707.557,212.267 			"/>
		</g>
	</g>
	<g>
		<polygon fill="#505B2E" points="708.778,272.778 708.778,293.974 719.657,296.128 719.657,274.421 		"/>
	</g>
	<g>
		<polygon fill="#424922" points="708.778,275.457 708.778,278.166 719.657,280.392 719.657,277.427 		"/>
	</g>
	<g>
		<polygon fill="#7A8956" points="707.088,277.503 687.359,279.133 684.89,287.687 707.088,283.294 		"/>
	</g>
	<g>
		<polygon fill="#7A8956" points="707.088,286.601 684.89,291.344 682.618,296.273 707.088,288.711 		"/>
	</g>
</g>
<g>
	<g>
		<path fill="#030F0B" d="M46.114,492.379l9.033,5.01l0.62-1.97l-13.864-9.13l-0.783-0.695c-0.334,0.652-0.638,1.325-0.9,2.02
			L46.114,492.379z"/>
		<path fill="#0D3529" d="M25.057,475.354l15.163,12.26c0.262-0.695,0.566-1.368,0.9-2.02L26.05,472.201L25.057,475.354z"/>
	</g>
	<g>
		<path fill="#0D3529" d="M31.369,473.876l-4.451-4.433l-0.869,2.758l6.658,3.613l9.574,7.812c0.304-0.448,0.626-0.875,0.963-1.284
			L31.369,473.876z"/>
		<path fill="#030F0B" d="M45.516,483.962l-2.271-1.619c-0.337,0.408-0.659,0.836-0.963,1.284l0.366,0.298l13.512,10.246
			l1.104-2.181c0,0-8.968-7.024-12.768-11.064c-0.292,0.304-0.577,0.617-0.856,0.939L45.516,483.962z"/>
		<path fill="#124934" d="M34.686,461.279c-1.382-4.55-5.086,4.461-5.086,4.461l6.947,8.194l7.093,7.93
			c0.278-0.322,0.564-0.635,0.856-0.939c-0.246-0.261-0.471-0.511-0.67-0.744C40.555,476.336,36.068,465.829,34.686,461.279z"/>
	</g>
	<g>
		<path fill="#124934" d="M48.698,464.712c-0.083-3.883,0.307-7.874,0.903-9.996c0.596-2.122,0.57-5.018,0.57-5.018l-6.024,3.083
			c0,0,1.918,0.099,2.424,6.971s-0.603,10.854-0.603,10.854l-2.1-7.085l-2.509-9.452l-5.283,4.399c0,0,4.403,10.112,6.853,13.996
			c0.951,1.508,2.585,3.716,4.338,5.985c1.221-0.942,2.518-1.773,3.882-2.489c-0.227-0.496-0.429-0.966-0.585-1.381
			C49.644,472.13,48.781,468.595,48.698,464.712z"/>
		<path fill="#030F0B" d="M54.701,487.713l2.203,2.722l2.189-1.909c0,0-1.675-1.865-4.23-5.591c0,0-2.354-4.004-3.713-6.975
			c-1.364,0.716-2.661,1.547-3.882,2.489C50.749,482.959,54.701,487.713,54.701,487.713z"/>
	</g>
	<g>
		<path fill="#124934" d="M57.62,448.507l-4.136,1.007l4.173,15.606l2.17,7.878c0.569-0.108,1.142-0.201,1.72-0.281L57.62,448.507z"
			/>
		<path fill="#124934" d="M65.689,449.243l-2.495-0.786l1.449,15.109l-1.972,9.012c0.469-0.051,0.939-0.093,1.411-0.126
			c0.496-3.84,1.653-8.686,1.653-8.686L65.689,449.243z"/>
		<path fill="#030F0B" d="M62.012,475.587l-0.465-2.869c-0.577,0.08-1.151,0.173-1.72,0.281l3.925,14.252
			c0,0,2.505,0.067,2.56-0.565c0.055-0.632-1.955-7.545-2.396-10.499c-0.125-0.84-0.032-2.208,0.165-3.734
			c-0.472,0.033-0.943,0.075-1.411,0.126L62.012,475.587z"/>
	</g>
	<g>
		<path fill="#030F0B" d="M60.326,488.048l2.076-0.862l-3.612-13.974c-0.699,0.154-1.392,0.327-2.075,0.524L60.326,488.048z"/>
		<path fill="#124934" d="M50.79,450.254l5.925,23.482c0.683-0.198,1.376-0.37,2.075-0.524l-6.117-23.664L50.79,450.254z"/>
	</g>
	<g>
		<path fill="#030F0B" d="M76.583,473.488c-0.757-0.176-1.519-0.332-2.284-0.468c-0.18,0.77-0.306,1.252-0.332,1.279
			c-0.023,0.024-0.099-0.509-0.2-1.371c-0.7-0.115-1.403-0.211-2.106-0.292c0.245,2.755,0.413,4.689,0.422,4.895
			c0.035,0.805,1.236,11.433,1.108,11.609c-0.128,0.176,1.998,0.99,1.998,0.99l1.046-14.323
			C76.235,475.807,76.379,474.888,76.583,473.488z"/>
		<path fill="#124934" d="M72.862,461.536c0.196-1.31,0.008-11.258,0.008-11.258l-3.276-0.599c0,0,1.357,14.959,2.067,22.957
			c0.703,0.081,1.406,0.176,2.106,0.292C73.405,469.846,72.709,462.559,72.862,461.536z"/>
		<path fill="#124934" d="M77.961,460.471c-0.124-3.504,0.236-8.082,0.236-8.082l-3.218-1.013c0,0,1.484,6.747,1.183,10.911
			c-0.228,3.15-1.305,8.343-1.863,10.734c0.765,0.136,1.527,0.292,2.284,0.468C77.112,469.862,78.05,462.999,77.961,460.471z"/>
	</g>
	<g>
		<path fill="#08251D" d="M82.631,454.579"/>
	</g>
	<g>
		<path fill="#030F0B" d="M69.724,487.543l1.649,0.952l-1.836-16.057c-0.586-0.038-1.171-0.06-1.756-0.073L69.724,487.543z"/>
		<path fill="#124934" d="M68.447,450.112l-2.036-0.641l0.872,19.006l0.498,3.889c0.585,0.013,1.17,0.035,1.756,0.073l-0.433-3.785
			L68.447,450.112z"/>
	</g>
	<g>
		<path fill="#124934" d="M80.799,474.692c0.95-5.449,2.396-13.286,3.038-14.798c0.997-2.348,1.079-2.978,1.079-2.978l-4.723-4.347
			c-0.134,0.238-1.174,12.676-1.895,21.35C79.139,474.151,79.973,474.411,80.799,474.692z"/>
		<path fill="#030F0B" d="M80.799,474.692c-0.825-0.28-1.659-0.541-2.502-0.772c-0.386,4.638-0.681,8.201-0.697,8.246
			c-0.047,0.129-0.525,8.524-0.525,8.524l1.036,0.375c0,0,1.781-10.778,1.786-10.996C79.899,479.991,80.273,477.705,80.799,474.692z
			"/>
	</g>
	<g>
		<path fill="#124934" d="M84.087,475.857c0.842-1.071,4.884-11.613,5.194-11.909c0.309-0.295-2.937-6.26-4.031-6.683
			c0,0-1.021,7.851-1.698,12.04c-0.297,1.836-0.768,4.025-1.203,5.945c0.569,0.217,1.133,0.444,1.69,0.685
			C84.055,475.908,84.072,475.875,84.087,475.857z"/>
		<path fill="#030F0B" d="M84.039,475.935c-0.557-0.241-1.121-0.467-1.69-0.685c-0.532,2.346-1.009,4.289-1.047,4.679
			c0,0-2.047,10.813-2.115,11.027c-0.068,0.215,0.726,0.676,0.726,0.676S83.127,477.447,84.039,475.935z"/>
	</g>
</g>
<g>
	<polygon fill="#72A5B2" points="546,200.779 586.449,217.896 562.106,228.767 	"/>
</g>
<g>
	<g>
		<g>
			<path fill="#505B2E" d="M118.799,460.402l2.964,5.628c0,0,1.837-2.463,1.248-3.298
				C122.422,461.898,118.799,460.402,118.799,460.402z"/>
		</g>
	</g>
	<g>
		<g>
			<path fill="#505B2E" d="M157.128,471.671l-3.345,5.41c0,0,3.054,0.334,3.475-0.599
				C157.677,475.551,157.128,471.671,157.128,471.671z"/>
		</g>
	</g>
	<g>
		<g>
			<path fill="#505B2E" d="M142.926,468.654l-5.352-3.342c0,0,1.099,3.831,2.291,4.958
				C141.058,471.397,145.568,470.302,142.926,468.654z"/>
		</g>
	</g>
	<g>
		<g>
			<path fill="#505B2E" d="M222.837,437.704l4.124-4.962c0,0,0.812,1.767-0.849,3.963
				C224.541,438.781,223.689,438.437,222.837,437.704z"/>
		</g>
	</g>
	<g>
		<g>
			<path fill="#505B2E" d="M218.856,453.818c0,0-2.561,4.415-3.113,4.889c-0.553,0.474,3.247,0.231,3.821-1.292
				C220.137,455.893,219.023,455.48,218.856,453.818z"/>
		</g>
	</g>
	<g>
		<g>
			<g>
				
					<rect x="142.574" y="413.984" transform="matrix(1 -0.0087 0.0087 1 -3.7284 1.2653)" fill="#875F58" width="1.001" height="27.447"/>
			</g>
		</g>
		<g>
			<g>
				<path fill="#875F58" d="M153.276,484.466l0.952-0.299l-16.735-67.955l-0.971,0.239l14.842,60.269
					c-8.336-21.651-20.511-53.333-20.775-54.257l-0.974,0.225C129.778,423.464,150.871,478.224,153.276,484.466z"/>
			</g>
		</g>
		<g>
			<g>
				
					<rect x="134.791" y="424.628" transform="matrix(0.9942 -0.1074 0.1074 0.9942 -45.5613 17.0295)" fill="#875F58" width="1" height="13.593"/>
			</g>
		</g>
		<g>
			<g>
				
					<rect x="132.612" y="424.774" transform="matrix(0.8179 -0.5754 0.5754 0.8179 -230.7357 157.3042)" fill="#875F58" width="1" height="36.703"/>
			</g>
		</g>
		<g>
			<g>
				<path fill="#875F58" d="M149.094,473.414l0.622-0.784c-1.999-1.589-32.649-34.031-33.465-35.422l-0.414,0.243l-0.335-0.449
					l-0.204,0.401C115.281,438.496,148.754,473.143,149.094,473.414z"/>
			</g>
		</g>
		<g>
			<g>
				
					<rect x="130.701" y="435.973" transform="matrix(0.7555 -0.6552 0.6552 0.7555 -271.8268 199.3857)" fill="#875F58" width="1" height="55.765"/>
			</g>
		</g>
		<g>
			<g>
				
					<rect x="126.626" y="453.865" transform="matrix(0.4211 -0.907 0.907 0.4211 -351.5286 386.6619)" fill="#875F58" width="1.001" height="29.671"/>
			</g>
		</g>
		<g>
			<g>
				<polygon fill="#875F58" points="160.464,484.931 161.462,484.982 162.529,464.111 154.939,410.692 153.949,410.834 
					161.535,464.157 				"/>
			</g>
		</g>
		<g>
			<g>
				<path fill="#875F58" d="M161.306,465.993l0.976,0.218c12.98-58.247,12.828-58.484,12.682-58.713l-0.421,0.27l-0.106,0.487
					l0.105-0.489l-0.496-0.001C173.947,409.045,165.669,446.413,161.306,465.993z"/>
			</g>
		</g>
		<g>
			<g>
				<polygon fill="#875F58" points="161.758,462.156 162.758,462.119 161.751,434.85 160.183,408.141 159.184,408.199 
					160.752,434.898 				"/>
			</g>
		</g>
		<g>
			<g>
				
					<rect x="151.809" y="419.858" transform="matrix(0.3244 -0.9459 0.9459 0.3244 -285.7032 440.687)" fill="#875F58" width="27.709" height="1"/>
			</g>
		</g>
		<g>
			<g>
				
					<rect x="151.496" y="411.677" transform="matrix(0.8664 -0.4993 0.4993 0.8664 -190.7482 132.3571)" fill="#875F58" width="1" height="22.004"/>
			</g>
		</g>
		<g>
			<g>
				
					<rect x="129.92" y="442.192" transform="matrix(0.0321 -0.9995 0.9995 0.0321 -298.3761 577.2726)" fill="#875F58" width="37.892" height="1"/>
			</g>
		</g>
		<g>
			<g>
				
					<rect x="141.919" y="469.382" transform="matrix(0.1164 -0.9932 0.9932 0.1164 -330.2238 568.5837)" fill="#875F58" width="25.044" height="1"/>
			</g>
		</g>
		<g>
			<g>
				
					<rect x="138.24" y="447.107" transform="matrix(0.0138 -0.9999 0.9999 0.0138 -272.3657 619.0522)" fill="#875F58" width="78.834" height="1"/>
			</g>
		</g>
		<g>
			<g>
				<path fill="#875F58" d="M169.802,486.231l1-0.017c-0.479-27.475-1.137-41.683-1.954-42.23l-0.501-0.056l0.366,0.931
					c-0.257,0.099-0.489-0.058-0.54-0.17C168.861,446.163,169.524,470.34,169.802,486.231z"/>
			</g>
		</g>
		<g>
			<g>
				
					<rect x="179.669" y="426.931" transform="matrix(0.5127 -0.8586 0.8586 0.5127 -275.7593 368.9966)" fill="#875F58" width="15.045" height="1"/>
			</g>
		</g>
		<g>
			<g>
				
					<rect x="151.495" y="454.628" transform="matrix(0.1244 -0.9922 0.9922 0.1244 -300.5172 569.7194)" fill="#875F58" width="42.082" height="1"/>
			</g>
		</g>
		<g>
			<g>
				<polygon fill="#875F58" points="185.999,492.231 189.032,459.627 188.036,459.534 185.772,483.86 181.432,454.46 
					186.837,408.241 185.844,408.124 180.433,454.54 				"/>
			</g>
		</g>
		<g>
			<g>
				
					<rect x="189.983" y="435.149" transform="matrix(0.9782 -0.2076 0.2076 0.9782 -90.3347 49.4654)" fill="#875F58" width="1" height="39.867"/>
			</g>
		</g>
		<g>
			<g>
				<polygon fill="#875F58" points="193.258,492.333 204.325,461.311 204.332,461.26 210.828,414.162 209.837,414.026 
					203.349,461.073 194.585,485.638 198.285,409.545 197.286,409.497 				"/>
			</g>
		</g>
		<g>
			<g>
				
					<rect x="198.228" y="431.345" transform="matrix(0.4178 -0.9085 0.9085 0.4178 -268.7625 444.2891)" fill="#875F58" width="28.091" height="1"/>
			</g>
		</g>
		<g>
			<g>
				
					<rect x="177.314" y="434.534" transform="matrix(0.1888 -0.982 0.982 0.1888 -265.2167 549.0085)" fill="#875F58" width="44.762" height="1"/>
			</g>
		</g>
		<g>
			<g>
				<path fill="#875F58" d="M200.216,489.885c6.521-13.534,17.47-36.323,17.537-36.892l-0.994-0.115l0.497,0.057l-0.483-0.126
					c-0.329,1.018-12.713,26.796-17.457,36.642L200.216,489.885z"/>
			</g>
		</g>
		<g>
			<g>
				
					<rect x="175.146" y="455.586" transform="matrix(0.338 -0.9411 0.9411 0.338 -290.2722 499.4814)" fill="#875F58" width="69.567" height="1"/>
			</g>
		</g>
		<g>
			<g>
				
					<rect x="200.996" y="478.454" transform="matrix(0.7873 -0.6166 0.6166 0.7873 -250.9166 230.5502)" fill="#875F58" width="15.411" height="1"/>
			</g>
		</g>
		<g>
			<g>
				<path fill="#505B2E" d="M126.613,436.306l-5.352-3.342c0,0,1.099,3.831,2.291,4.958
					C124.744,439.049,129.254,437.954,126.613,436.306z"/>
			</g>
		</g>
		<g>
			<g>
				<path fill="#505B2E" d="M177.737,424.11l-4.359-2.722c0,0,0.894,3.121,1.866,4.038
					C176.216,426.343,179.888,425.452,177.737,424.11z"/>
			</g>
		</g>
		<g>
			<g>
				<path fill="#505B2E" d="M169.056,455.814l-2.9-4.243c0,0-0.432,3.217,0.089,4.447
					C166.768,457.248,170.49,457.906,169.056,455.814z"/>
			</g>
		</g>
		<g>
			<g>
				<path fill="#505B2E" d="M190.014,423.571l4.124-4.962c0,0,0.812,1.767-0.849,3.963
					C191.718,424.649,190.866,424.304,190.014,423.571z"/>
			</g>
		</g>
		<g>
			<g>
				<path fill="#505B2E" d="M200.061,440.218l4.124-4.962c-0.779-0.053-1.875,1.584-0.849,3.963
					C204.368,441.61,200.914,440.951,200.061,440.218z"/>
			</g>
		</g>
		<g>
			<g>
				<path fill="#505B2E" d="M190.926,441.431l-1.275,7.275c0,0,3.736-0.948,3.9-3.08
					C193.715,443.494,190.926,441.431,190.926,441.431z"/>
			</g>
		</g>
		<g>
			<g>
				<path fill="#505B2E" d="M151.291,429.465c0,0-1.22,6.573-1.692,7.399c-0.474,0.827,4.107-1.142,4.146-3.272
					C153.783,431.461,152.227,431.44,151.291,429.465z"/>
			</g>
		</g>
		<g>
			<g>
				<path fill="#505B2E" d="M151.916,445.263c0,0-2.347,6.26-2.957,6.992c-0.61,0.731,4.244-0.408,4.653-2.5
					C154.021,447.663,152.492,447.371,151.916,445.263z"/>
			</g>
		</g>
		<g>
			<g>
				<path fill="#505B2E" d="M117.931,451.118c0,0,3.766,2.755,4.402,2.948c0.636,0.193-2.633,1.385-3.671,0.322
					C117.622,453.325,118.403,452.569,117.931,451.118z"/>
			</g>
		</g>
		<g>
			<g>
				<path fill="#505B2E" d="M163.024,431.572c0,0-0.626,4.623-0.928,5.216c-0.302,0.591,2.824-0.936,2.778-2.423
					C164.829,432.878,163.743,432.917,163.024,431.572z"/>
			</g>
		</g>
		<g>
			<g>
				<path fill="#505B2E" d="M166.01,464.899c0,0,2.015,4.208,2.484,4.679c0.469,0.471-2.975-0.024-3.387-1.452
					C164.693,466.697,165.739,466.401,166.01,464.899z"/>
			</g>
		</g>
		<g>
			<g>
				<path fill="#505B2E" d="M132.611,418.386c0,0,3.766,2.755,4.402,2.948c0.636,0.193-2.633,1.385-3.671,0.322
					C132.301,420.592,133.082,419.836,132.611,418.386z"/>
			</g>
		</g>
		<g>
			<g>
				<path fill="#505B2E" d="M164.434,411.147c0,0,0.422,4.647,0.698,5.252c0.275,0.604-2.78-1.061-2.669-2.542
					C162.574,412.374,163.657,412.46,164.434,411.147z"/>
			</g>
		</g>
		<g>
			<g>
				<path fill="#505B2E" d="M184.199,454.255c0,0-1.792,4.78-2.258,5.339c-0.466,0.558,3.241-0.312,3.553-1.909
					C185.807,456.088,184.64,455.866,184.199,454.255z"/>
			</g>
		</g>
		<g>
			<g>
				<path fill="#505B2E" d="M208.334,445.001c0,0-1.841,3.173-2.238,3.514c-0.397,0.341,2.334,0.166,2.746-0.928
					C209.254,446.492,208.454,446.196,208.334,445.001z"/>
			</g>
		</g>
		<g>
			<g>
				<path fill="#505B2E" d="M212.481,418.98c0,0-1.908,3.288-2.319,3.642c-0.412,0.353,2.419,0.172,2.846-0.963
					C213.435,420.524,212.606,420.217,212.481,418.98z"/>
			</g>
		</g>
		<g>
			<g>
				<path fill="#505B2E" d="M170.683,477.687c0,0,2.31-3.926,2.201-6.16c-0.109-2.235,2.911,2.544,1.423,4.723
					C172.817,478.43,171.291,477.758,170.683,477.687z"/>
			</g>
		</g>
		<g>
			<g>
				<path fill="#505B2E" d="M195.146,466.121c0,0,2.941-3.478,3.212-5.698c0.272-2.221,2.438,3,0.603,4.896
					C197.124,467.215,195.733,466.294,195.146,466.121z"/>
			</g>
		</g>
		<g>
			<g>
				
					<rect x="195.171" y="445.736" transform="matrix(0.4848 -0.8746 0.8746 0.4848 -278.371 419.8883)" fill="#875F58" width="44.122" height="1"/>
			</g>
		</g>
		<g>
			<g>
				
					<rect x="194.301" y="455.313" transform="matrix(0.5205 -0.8539 0.8539 0.5205 -282.8957 407.8508)" fill="#875F58" width="54.795" height="1"/>
			</g>
		</g>
		<g>
			<g>
				
					<rect x="127.174" y="463.482" transform="matrix(0.3806 -0.9247 0.9247 0.3806 -362.5626 413.8755)" fill="#875F58" width="1.001" height="28.214"/>
			</g>
		</g>
	</g>
</g>
<g>
	<g>
		<polygon fill="#05180F" points="547.678,365.264 547.056,366.791 540.196,362.217 524.553,347.301 525.548,344.858 
			537.243,357.098 		"/>
	</g>
	<g>
		<path fill="#05180F" d="M526.419,342.721l-0.871,2.138l5.062,3.307l7.38,7.1l10.083,9.031l1.02-1.663c0,0-7.57-6.997-9.922-10.269
			c-2.352-3.272-5.237-11.924-6.041-15.633c-0.804-3.709-4.337,3.218-4.337,3.218l4.993,6.971l6.482,8.561l-10.598-8.945
			L526.419,342.721z"/>
	</g>
	<g>
		<path fill="#05180F" d="M538.909,331.43l-4.49,3.156c0,0,2.844,8.331,4.54,11.581c1.966,3.768,8.372,12.897,8.372,12.897
			l1.575,2.309l1.866-1.376c0,0-1.211-1.593-3.001-4.723c0,0-2.199-4.551-2.875-6.927c-0.572-2.009-1.028-4.878-0.842-7.972
			c0.186-3.094,0.757-6.244,1.37-7.894c0.612-1.649,0.78-3.955,0.78-3.955l-4.993,2.061c0,0,1.519,0.203,1.475,5.704
			c-0.045,5.5-1.186,8.596-1.186,8.596l-1.209-5.773L538.909,331.43z"/>
	</g>
	<g>
		<path fill="#05180F" d="M548.851,328.596l3.356-0.532l1.731,21.829l2.875-9.391l-0.169-12.115l1.934,0.788l-0.909,11.557
			c0,0-2.414,7.384-2.255,9.762c0.159,2.379,1.307,8.009,1.223,8.509c-0.085,0.5-2.073,0.283-2.073,0.283l-3.408-18.003
			L548.851,328.596z"/>
	</g>
	<g>
		<polygon fill="#05180F" points="548.203,328.57 546.659,329.009 551.785,359.697 553.492,359.146 		"/>
	</g>
	<g>
		<path fill="#05180F" d="M561.656,329.776c0,0,0.191,21.677,0.167,22.32c-0.024,0.643,0.239,9.176,0.126,9.308
			c-0.113,0.132,1.525,0.918,1.525,0.918l1.765-11.327c0,0,2.242-9.293,2.372-12.088c0.13-2.795,0.714-6.415,0.714-6.415
			l-2.494-1.016c0,0,0.742,5.464,0.231,8.757c-0.51,3.293-2.436,9.333-2.528,9.414s-0.29-9.197-0.048-10.226
			c0.241-1.029,0.74-8.955,0.74-8.955L561.656,329.776z"/>
	</g>
	<g>
		<path fill="#05180F" d="M571.709,334.523"/>
	</g>
	<g>
		<polygon fill="#05180F" points="559.138,329.403 560.716,330.046 560.031,344.839 560.544,360.772 559.294,359.907 
			558.594,344.58 		"/>
	</g>
	<g>
		<path fill="#05180F" d="M569.899,332.766c-0.187,0.277-3.944,23.276-3.989,23.376c-0.046,0.1-0.972,6.747-0.972,6.747l0.8,0.366
			c0,0,2.118-8.459,2.137-8.631c0.019-0.173,3.501-13.99,4.448-15.793c0.946-1.803,1.052-2.299,1.052-2.299L569.899,332.766z"/>
	</g>
	<g>
		<path fill="#05180F" d="M573.618,336.83c0,0-1.324,6.179-2.135,9.468c-0.79,3.203-2.38,7.746-2.481,8.306
			c0,0-2.333,8.469-2.4,8.635c-0.068,0.166,0.533,0.585,0.533,0.585s3.608-11.482,4.348-12.279c0.74-0.797,4.642-8.921,4.907-9.136
			C576.655,342.194,574.46,337.238,573.618,336.83z"/>
	</g>
</g>
<g>
	<g>
		<g>
			<path fill="#875F58" d="M636.896,362.598l1.871,4.6c0,0,1.617-1.772,1.223-2.467
				C639.596,364.038,636.896,362.598,636.896,362.598z"/>
		</g>
	</g>
	<g>
		<g>
			<path fill="#875F58" d="M665.812,374.297l-3.015,3.947c0,0,2.348,0.494,2.746-0.198
				C665.94,377.354,665.812,374.297,665.812,374.297z"/>
		</g>
	</g>
	<g>
		<g>
			<path fill="#875F58" d="M655.009,370.862l-3.902-3.007c0,0,0.56,3.061,1.4,4.028C653.346,372.85,656.935,372.345,655.009,370.862
				z"/>
		</g>
	</g>
	<g>
		<g>
			<path fill="#875F58" d="M719.474,352.949c0.161,0.169,0.326,0.313,0.505,0.41v-0.909L719.474,352.949z"/>
		</g>
	</g>
	<g>
		<g>
			<path fill="#875F58" d="M715.144,365.165c0,0-2.329,3.234-2.794,3.56c-0.466,0.326,2.505,0.429,3.068-0.711
				C715.98,366.875,715.146,366.468,715.144,365.165z"/>
		</g>
	</g>
	<g>
		<g>
			<g>
				
					<rect x="647.552" y="338.668" transform="matrix(0.0896 -0.996 0.996 0.0896 261.5659 964.2822)" fill="#875F58" width="21.43" height="0.781"/>
			</g>
		</g>
		<g>
			<g>
				<path fill="#875F58" d="M661.836,383.942l0.763-0.159l-7.786-54.084l-0.773,0.111l6.905,47.967
					c-4.814-17.462-11.842-43.014-11.976-43.751l-0.774,0.1C648.262,334.741,660.447,378.908,661.836,383.942z"/>
			</g>
		</g>
		<g>
			<g>
				
					<rect x="651.544" y="336.043" transform="matrix(1 -0.0091 0.0091 1 -3.0918 5.9711)" fill="#875F58" width="0.781" height="10.613"/>
			</g>
		</g>
		<g>
			<g>
				
					<rect x="648.953" y="335.945" transform="matrix(0.8705 -0.4922 0.4922 0.8705 -88.3027 364.976)" fill="#875F58" width="0.78" height="28.656"/>
			</g>
		</g>
		<g>
			<g>
				<path fill="#875F58" d="M659.436,375.034l0.544-0.561c-1.431-1.388-22.755-28.948-23.282-30.091l-0.34,0.157l-0.226-0.375
					l-0.189,0.296C635.845,345.307,659.193,374.797,659.436,375.034z"/>
			</g>
		</g>
		<g>
			<g>
				
					<rect x="645.876" y="344.463" transform="matrix(0.8162 -0.5777 0.5777 0.8162 -92.8193 440.6603)" fill="#875F58" width="0.781" height="43.54"/>
			</g>
		</g>
		<g>
			<g>
				
					<rect x="642.339" y="358.102" transform="matrix(0.5082 -0.8612 0.8612 0.5082 -2.2939 735.3531)" fill="#875F58" width="0.781" height="23.166"/>
			</g>
		</g>
		<g>
			<g>
				<polygon fill="#875F58" points="667.385,384.856 668.158,384.971 670.589,368.838 668.792,326.749 668.012,326.783 
					669.813,368.797 				"/>
			</g>
		</g>
		<g>
			<g>
				<path fill="#875F58" d="M669.494,370.205l0.742,0.244c14.557-44.26,14.457-44.456,14.361-44.645l-0.348,0.177l-0.12,0.371
					l0.119-0.372l-0.385-0.039C683.688,326.929,674.387,355.327,669.494,370.205z"/>
			</g>
		</g>
		<g>
			<g>
				<polygon fill="#875F58" points="670.139,367.259 670.919,367.307 672.231,346.042 673.063,325.169 672.282,325.138 
					671.451,346.003 				"/>
			</g>
		</g>
		<g>
			<g>
				
					<rect x="665.566" y="334.692" transform="matrix(0.4159 -0.9094 0.9094 0.4159 90.3661 810.854)" fill="#875F58" width="21.634" height="0.781"/>
			</g>
		</g>
		<g>
			<g>
				
					<rect x="665.195" y="327.246" transform="matrix(0.9113 -0.4117 0.4117 0.9113 -79.2395 303.8068)" fill="#875F58" width="0.781" height="17.18"/>
			</g>
		</g>
		<g>
			<g>
				
					<rect x="646.824" y="350.756" transform="matrix(0.1302 -0.9915 0.9915 0.1302 227.3043 961.4023)" fill="#875F58" width="29.585" height="0.781"/>
			</g>
		</g>
		<g>
			<g>
				
					<rect x="654.084" y="372.31" transform="matrix(0.2135 -0.9769 0.9769 0.2135 158.0254 941.6885)" fill="#875F58" width="19.553" height="0.781"/>
			</g>
		</g>
		<g>
			<g>
				
					<rect x="652.834" y="356.785" transform="matrix(0.1121 -0.9937 0.9937 0.1121 252.0564 996.439)" fill="#875F58" width="61.551" height="0.781"/>
			</g>
		</g>
		<g>
			<g>
				<path fill="#875F58" d="M674.541,386.583l0.778,0.064c1.737-21.385,2.317-32.474,1.724-32.962l-0.385-0.082l0.213,0.752
					c-0.207,0.057-0.375-0.082-0.406-0.174C676.887,355.378,675.545,374.214,674.541,386.583z"/>
			</g>
		</g>
		<g>
			<g>
				
					<rect x="686.693" y="341.84" transform="matrix(0.5947 -0.804 0.804 0.5947 5.5828 695.5346)" fill="#875F58" width="11.747" height="0.781"/>
			</g>
		</g>
		<g>
			<g>
				
					<rect x="662.625" y="362.235" transform="matrix(0.2213 -0.9752 0.9752 0.2213 175.1217 944.5742)" fill="#875F58" width="32.856" height="0.781"/>
			</g>
		</g>
		<g>
			<g>
				<polygon fill="#875F58" points="686.665,392.488 691.526,367.388 690.759,367.239 687.132,385.967 686.017,362.789 
					693.765,327.293 693.003,327.127 685.234,362.775 				"/>
			</g>
		</g>
		<g>
			<g>
				
					<rect x="692.612" y="348.405" transform="matrix(0.9939 -0.1104 0.1104 0.9939 -35.9537 78.7522)" fill="#875F58" width="0.78" height="31.127"/>
			</g>
		</g>
		<g>
			<g>
				<polygon fill="#875F58" points="692.298,393.124 703.278,369.871 703.288,369.832 711.951,333.736 711.192,333.554 
					702.538,369.61 693.843,388.024 702.56,329.186 701.787,329.071 				"/>
			</g>
		</g>
		<g>
			<g>
				
					<rect x="700.75" y="347.196" transform="matrix(0.5051 -0.8631 0.8631 0.5051 52.2422 786.2781)" fill="#875F58" width="21.933" height="0.781"/>
			</g>
		</g>
		<g>
			<g>
				
					<rect x="684.224" y="348.708" transform="matrix(0.2844 -0.9587 0.9587 0.2844 167.43 922.5158)" fill="#875F58" width="34.949" height="0.78"/>
			</g>
		</g>
		<g>
			<g>
				<path fill="#875F58" d="M697.892,391.757c6.106-10.015,16.363-26.881,16.458-27.318l-0.763-0.165l0.382,0.083l-0.366-0.135
					c-0.333,0.765-11.935,19.844-16.377,27.13L697.892,391.757z"/>
			</g>
		</g>
		<g>
			<g>
				<polygon fill="#875F58" points="719.33,341.541 696.032,390.606 696.737,390.941 719.979,341.995 719.979,341.849 				"/>
			</g>
			<g>
				<polygon fill="#875F58" points="719.979,341.849 719.979,341.995 720.036,341.876 				"/>
			</g>
		</g>
		<g>
			<g>
				
					<rect x="699.308" y="383.525" transform="matrix(0.8441 -0.5362 0.5362 0.8441 -95.8914 438.0128)" fill="#875F58" width="12.033" height="0.781"/>
			</g>
		</g>
		<g>
			<g>
				<path fill="#875F58" d="M644.817,344.476l-3.902-3.007c0,0,0.56,3.061,1.4,4.028
					C643.155,346.463,646.743,345.959,644.817,344.476z"/>
			</g>
		</g>
		<g>
			<g>
				<path fill="#875F58" d="M685.476,338.925l-3.178-2.45c0,0,0.455,2.494,1.14,3.28
					C684.122,340.543,687.045,340.132,685.476,338.925z"/>
			</g>
		</g>
		<g>
			<g>
				<path fill="#875F58" d="M676.297,362.892l-1.927-3.519c0,0-0.583,2.467-0.272,3.462
					C674.409,363.83,677.251,364.627,676.297,362.892z"/>
			</g>
		</g>
		<g>
			<g>
				<path fill="#875F58" d="M695.056,339.448l3.585-3.539c0,0,0.495,1.435-0.964,3.014
					C696.298,340.417,695.662,340.084,695.056,339.448z"/>
			</g>
		</g>
		<g>
			<g>
				<path fill="#875F58" d="M701.585,353.154l3.585-3.539c0,0,0.495,1.435-0.964,3.014
					C702.827,354.122,702.191,353.789,701.585,353.154z"/>
			</g>
		</g>
		<g>
			<g>
				<path fill="#875F58" d="M694.394,353.395l-1.549,5.555c0,0,2.976-0.449,3.267-2.094
					C696.402,355.212,694.394,353.395,694.394,353.395z"/>
			</g>
		</g>
		<g>
			<g>
				<path fill="#875F58" d="M664.517,341.055c0,0-1.453,5.014-1.883,5.619c-0.432,0.606,3.279-0.572,3.472-2.224
					C666.299,342.797,665.092,342.662,664.517,341.055z"/>
			</g>
		</g>
		<g>
			<g>
				<path fill="#875F58" d="M663.79,353.378c0,0-2.304,4.684-2.834,5.205c-0.53,0.521,3.329,0.009,3.807-1.585
					C665.241,355.404,664.075,355.06,663.79,353.378z"/>
			</g>
		</g>
		<g>
			<g>
				<path fill="#875F58" d="M636.935,355.318c0,0,2.714,2.429,3.194,2.629c0.479,0.198-2.152,0.874-2.877-0.032
					C636.524,357.009,637.189,356.481,636.935,355.318z"/>
			</g>
		</g>
		<g>
			<g>
				<path fill="#875F58" d="M673.472,343.593c0,0-0.841,3.544-1.121,3.981c-0.28,0.436,2.266-0.511,2.344-1.669
					C674.773,344.746,673.927,344.693,673.472,343.593z"/>
			</g>
		</g>
		<g>
			<g>
				<path fill="#875F58" d="M673.233,369.717c0,0,1.243,3.425,1.571,3.826c0.328,0.402-2.31-0.247-2.52-1.388
					C672.072,371.012,672.907,370.863,673.233,369.717z"/>
			</g>
		</g>
		<g>
			<g>
				<path fill="#875F58" d="M650.853,331.012c0,0,2.714,2.429,3.194,2.629c0.479,0.198-2.152,0.874-2.877-0.032
					C650.443,332.703,651.108,332.176,650.853,331.012z"/>
			</g>
		</g>
		<g>
			<g>
				<path fill="#875F58" d="M676.135,327.832c0,0-0.029,3.643,0.139,4.134c0.168,0.491-2.079-1.038-1.879-2.18
					C674.596,328.641,675.43,328.792,676.135,327.832z"/>
			</g>
		</g>
		<g>
			<g>
				<path fill="#875F58" d="M688.183,362.843c0,0-1.759,3.576-2.164,3.975c-0.405,0.398,2.542,0.006,2.907-1.211
					C689.291,364.391,688.401,364.128,688.183,362.843z"/>
			</g>
		</g>
		<g>
			<g>
				<path fill="#875F58" d="M707.646,357.506c0,0-1.674,2.324-2.009,2.559c-0.335,0.234,1.801,0.308,2.205-0.51
					C708.246,358.735,707.647,358.443,707.646,357.506z"/>
			</g>
		</g>
		<g>
			<g>
				<path fill="#875F58" d="M712.865,337.606c0,0-1.735,2.408-2.081,2.652c-0.347,0.242,1.866,0.319,2.286-0.53
					C713.488,338.879,712.868,338.577,712.865,337.606z"/>
			</g>
		</g>
		<g>
			<g>
				<path fill="#875F58" d="M675.882,380.011c0,0,2.096-2.873,2.183-4.617c0.087-1.745,2.067,2.2,0.743,3.779
					C677.483,380.753,676.349,380.113,675.882,380.011z"/>
			</g>
		</g>
		<g>
			<g>
				<path fill="#875F58" d="M695.777,372.903c0,0,2.552-2.477,2.933-4.181c0.382-1.705,1.664,2.518,0.093,3.85
					C697.23,373.905,696.22,373.083,695.777,372.903z"/>
			</g>
		</g>
		<g>
			<g>
				<polygon fill="#875F58" points="704.351,373.097 704.994,373.541 719.979,351.854 719.979,350.48 				"/>
			</g>
		</g>
		<g>
			<g>
				<polygon fill="#875F58" points="704.011,383.778 704.634,384.249 719.979,363.893 719.979,362.596 				"/>
			</g>
		</g>
		<g>
			<g>
				
					<rect x="642.082" y="365.619" transform="matrix(0.4697 -0.8828 0.8828 0.4697 8.2007 766.9183)" fill="#875F58" width="0.781" height="22.028"/>
			</g>
		</g>
	</g>
</g>
<g>
	<g>
		<polygon fill="#D09C92" points="483.118,416.272 487.881,414.267 487.881,384.938 485.5,379.423 485.5,321.016 484.121,321.016 		
			"/>
	</g>
	<g>
		<path fill="#D09C92" d="M483.807,377.355c-24.113-30.896-31.677-74.019-31.388-75.464l0.738,0.134
			c-0.189,1.945,7.501,44.451,31.241,74.869L483.807,377.355z"/>
	</g>
	<g>
		<path fill="#D09C92" d="M487,386.38c-0.005-0.332-0.239-33.491,22.142-62.835l0.596,0.455
			c-22.217,29.13-21.992,62.039-21.987,62.368L487,386.38z"/>
	</g>
	<g>
		<path fill="#D09C92" d="M484.377,330.831c-1.485-14.23-6.483-24.31-10.312-28.618c-2.379-2.676-6.201-5.605-9.898-8.438
			c-4.13-3.165-8.4-6.438-10.674-9.379c-4.272-5.529-6.259-19.152-6.341-19.729l0.742-0.105c0.021,0.139,2.041,14.004,6.192,19.376
			c2.214,2.865,6.444,6.107,10.536,9.242c3.725,2.855,7.577,5.807,10.003,8.536c3.903,4.392,8.994,14.631,10.498,29.038
			L484.377,330.831z"/>
	</g>
	<g>
		<path fill="#D09C92" d="M478.565,315.472c-7.741,0-13.029-6.938-13.087-7.016l0.6-0.449c0.062,0.082,6.283,8.234,14.964,6.463
			l0.15,0.734C480.29,315.389,479.413,315.472,478.565,315.472z"/>
	</g>
	<g>
		<path fill="#D09C92" d="M485.123,323.285l-0.746-0.072c1.381-14.364,8.325-103.354,8.395-104.252l0.748,0.059
			C493.449,219.917,486.505,308.914,485.123,323.285z"/>
	</g>
	<g>
		<path fill="#D09C92" d="M488.689,272.534c-0.138-0.13-3.423-3.289-7.909-12.52c-4.49-9.238-5.756-34.905-5.808-35.993l0.75-0.035
			c0.012,0.265,1.31,26.601,5.731,35.7c4.415,9.084,7.718,12.271,7.751,12.303L488.689,272.534z"/>
	</g>
	<g>
		<path fill="#D09C92" d="M483.474,263.829l-0.711-0.236c1.219-3.654-0.007-43.189-0.02-43.588l0.75-0.023
			C483.544,221.616,484.734,260.05,483.474,263.829z"/>
	</g>
	<g>
		<path fill="#D09C92" d="M486.907,295.22c-0.207-0.154-5.144-3.887-11.87-13.852c-6.748-9.996-9.519-50.843-9.633-52.577
			l0.748-0.05c0.028,0.423,2.871,42.377,9.506,52.207c6.646,9.844,11.647,13.633,11.697,13.67L486.907,295.22z"/>
	</g>
	<g>
		<path fill="#D09C92" d="M472.601,275.776c-17.005-11.004-18.917-33.965-18.935-34.196l0.748-0.057
			c0.017,0.227,1.906,22.824,18.595,33.624L472.601,275.776z"/>
	</g>
	<g>
		<path fill="#D09C92" d="M467.234,271.231c-14.617-5.274-17.051-17.955-17.073-18.082l0.738-0.133
			c0.022,0.123,2.394,12.388,16.589,17.51L467.234,271.231z"/>
	</g>
	<g>
		<path fill="#D09C92" d="M492.479,357.237l-0.047-0.748c0.16-0.011,16.197-1.255,28.72-21.88l0.641,0.389
			C509.054,355.979,492.643,357.227,492.479,357.237z"/>
	</g>
	<g>
		<path fill="#D09C92" d="M472.402,358.468l-0.746-0.084c2.955-26.353-2.844-37.079-2.902-37.185l0.654-0.367
			C469.653,321.269,475.389,331.831,472.402,358.468z"/>
	</g>
	<g>
		<path fill="#D09C92" d="M473.208,343.072l-0.66-0.357c4.581-8.46,4.156-20.506,3.413-21.4l0.401-0.627
			C477.714,321.423,477.779,334.626,473.208,343.072z"/>
	</g>
	<g>
		<path fill="#D09C92" d="M476.259,304.866c-0.442-12.688-7.418-23.144-7.488-23.248l0.621-0.42
			c0.071,0.105,7.167,10.74,7.617,23.643L476.259,304.866z"/>
	</g>
	<g>
		<path fill="#D09C92" d="M485.018,339.984l-0.535-0.525c0.288-0.294,28.872-29.781,30.6-63.584l0.748,0.039
			C514.089,310.003,485.308,339.688,485.018,339.984z"/>
	</g>
	<g>
		<path fill="#D09C92" d="M486.438,307.911l-0.721-0.209c0.023-0.08,0.073-0.323,0.153-0.708
			c2.125-10.216,7.171-28.453,17.078-35.812c12.021-8.93,16.698-32.64,12.702-47.078l0.723-0.2
			c4.06,14.667-0.725,38.777-12.978,47.879c-7.195,5.346-13.158,17.904-16.791,35.364
			C486.519,307.564,486.463,307.826,486.438,307.911z"/>
	</g>
	<g>
		<path fill="#D09C92" d="M489.297,264.086l-0.001-0.75c0.177-0.001,17.638-0.555,17.638-41.337h0.75
			C507.684,263.608,490.048,264.086,489.297,264.086z"/>
	</g>
	<g>
		<path fill="#D09C92" d="M498.32,258.225c-6.009-12.266,1.699-24.77,1.777-24.895l0.635,0.399
			c-0.076,0.121-7.561,12.281-1.738,24.165L498.32,258.225z"/>
	</g>
	<g>
		<path fill="#D09C92" d="M509.741,263.93c-0.214-0.297-5.183-7.422-0.653-19.75l0.703,0.259c-4.383,11.931,0.51,18.985,0.56,19.054
			L509.741,263.93z"/>
	</g>
	<g>
		<path fill="#D09C92" d="M491.117,297.834c-1.508,0-2.456-0.305-2.531-0.33l0.236-0.712c0.033,0.012,3.462,1.097,7.745-1.075
			c5.232-2.65,9.443-8.77,12.516-18.185l0.713,0.232c-3.142,9.628-7.487,15.897-12.915,18.635
			C494.618,297.54,492.598,297.834,491.117,297.834z"/>
	</g>
	<g>
		<path fill="#D09C92" d="M486.507,315.515c-0.644,0-1.028-0.04-1.05-0.042l0.085-0.746c0.03,0.006,3.042,0.326,6.517-0.856
			c4.635-1.579,7.859-4.95,9.583-10.021l0.711,0.242C498.782,314.59,489.617,315.515,486.507,315.515z"/>
	</g>
	<g>
		<path fill="#D09C92" d="M503.884,315.243c-0.576,0-0.92-0.021-0.941-0.022l0.051-0.748c0.142,0.007,13.824,0.828,15.981-8.582
			l0.73,0.168C517.751,314.58,507.13,315.243,503.884,315.243z"/>
	</g>
	<g>
		<path fill="#D09C92" d="M513.474,257.172l-0.052-0.748c0.428-0.03,10.478-0.848,11.438-10.666l0.746,0.073
			C524.584,256.286,513.585,257.164,513.474,257.172z"/>
	</g>
	<g>
		<path fill="#D09C92" d="M512.778,297.527c-0.996,0-1.647-0.203-1.699-0.221l0.229-0.714c0.021,0.008,2.269,0.694,4.803-0.683
			c2.682-1.458,4.701-4.599,6.002-9.336l0.723,0.199c-1.359,4.952-3.508,8.251-6.385,9.806
			C515.057,297.331,513.753,297.527,512.778,297.527z"/>
	</g>
	<g>
		<path fill="#D09C92" d="M460.062,331.164c-11.75-1.519-15.373-14.183-15.408-14.311l0.723-0.199
			c0.034,0.123,3.531,12.312,14.781,13.766L460.062,331.164z"/>
	</g>
	<g>
		<path fill="#D09C92" d="M456.02,318.342l-0.044-0.748c0.018-0.001,1.725-0.125,2.973-1.629c1.169-1.41,1.586-3.55,1.237-6.361
			l0.744-0.092c0.376,3.033-0.101,5.369-1.415,6.945C458.053,318.208,456.102,318.338,456.02,318.342z"/>
	</g>
	<g>
		<path fill="#D09C92" d="M460.065,350.041c-0.381,0-0.77-0.025-1.166-0.083c-2.77-0.398-5.204-2.225-7.235-5.429l0.633-0.402
			c1.907,3.009,4.163,4.721,6.703,5.088c3.933,0.564,7.241-2.292,7.274-2.321l0.494,0.564
			C466.637,347.573,463.777,350.041,460.065,350.041z"/>
	</g>
	<g>
		<path fill="#D09C92" d="M510.853,347.33c-3.062-6.796,2.069-14.188,2.289-14.499l0.613,0.433
			c-0.052,0.073-5.103,7.356-2.219,13.758L510.853,347.33z"/>
	</g>
	<g>
		<path fill="#D09C92" d="M451.942,284.693c-5.056,0-8.205-3.408-9.235-5.424c-0.324-0.633-0.624-1.474-0.213-1.886l0.531,0.531
			c0.02-0.021,0.026-0.038,0.026-0.038c-0.066,0.193,0.229,1.227,1.321,2.519c1.097,1.3,4.205,4.231,9.356,3.401l0.119,0.74
			C453.187,284.644,452.551,284.693,451.942,284.693z"/>
	</g>
	<g>
		<path fill="#D09C92" d="M511.261,271.252c-3.256,0-5.503-1.785-5.61-1.872l0.472-0.583c0.028,0.022,2.795,2.208,6.48,1.594
			c3.119-0.52,5.996-2.834,8.552-6.88l0.635,0.4c-2.679,4.24-5.731,6.67-9.075,7.221
			C512.211,271.215,511.726,271.252,511.261,271.252z"/>
	</g>
</g>
<g>
	<path fill="#6A682D" d="M719.922,371.103v132.894h-720c0,0,98.888-29.69,127.403-24.287s195.446-29.719,212.673-36.743
		s168.713-35.122,197.228-35.662C565.74,406.765,689.899,369.052,719.922,371.103z"/>
</g>
<g>
	<g>
		<g>
			<g>
				<polygon fill="#062619" points="605.334,177.376 589.052,186.226 585.104,202.248 605.334,192.065 				"/>
			</g>
		</g>
	</g>
	<g>
		<g>
			<g>
				<polygon fill="#062619" points="605.334,196.185 583.74,207.781 582.943,211.59 605.334,198.155 				"/>
			</g>
		</g>
	</g>
	<g>
		<g>
			<g>
				<polygon fill="#0A3F27" points="605.334,199.813 582.116,214.367 578.81,227.775 605.334,214.68 				"/>
			</g>
		</g>
	</g>
	<g>
		<g>
			<g>
				<polygon fill="#0C1905" points="605.334,214.189 604.889,225.205 576.728,236.222 578.81,227.775 				"/>
			</g>
		</g>
	</g>
	<g>
		<g>
			<g>
				<polygon fill="#0A3F27" points="604.761,225.191 604.622,238.437 573.429,249.605 576.728,236.222 				"/>
			</g>
		</g>
	</g>
	<g>
		<g>
			<g>
				<polygon fill="#0A3F27" points="604.761,243.676 572.002,255.396 559.578,305.879 604.266,287.071 				"/>
			</g>
		</g>
	</g>
	<g>
		<g>
			<g>
				<polygon fill="#103126" points="604.266,287.071 604.225,292.511 558.2,311.757 559.578,305.879 				"/>
			</g>
		</g>
	</g>
	<g>
		<g>
			<g>
				<polygon fill="#0C1905" points="604.225,292.511 604.225,314.847 556.798,317.197 558.173,311.707 				"/>
			</g>
		</g>
	</g>
	<g>
		<g>
			<g>
				<polygon fill="#134727" points="604.225,314.847 604.225,324.487 551.001,340.849 556.969,317.064 				"/>
			</g>
		</g>
	</g>
	<g>
		<g>
			<g>
				<polygon fill="#062619" points="603.964,328.158 549.404,347.012 545.801,362.256 603.856,342.893 				"/>
			</g>
		</g>
	</g>
	<g>
		<g>
			<g>
				<polygon fill="#87554E" points="603.05,397.76 606.812,397.76 605.736,125.25 604.931,125.25 				"/>
			</g>
		</g>
	</g>
	<g>
		<g>
			<g>
				<polygon fill="#062619" points="605.334,290.727 651.534,307.697 657.192,328.158 605.427,305.459 				"/>
			</g>
		</g>
	</g>
	<g>
		<g>
			<g>
				<polygon fill="#062619" points="605.334,169.047 605.334,173.077 590.287,180.622 592.154,173.679 				"/>
			</g>
		</g>
	</g>
	<g>
		<g>
			<g>
				<polygon fill="#0A3F27" points="605.334,146.448 597.21,153.2 593.297,169.047 605.334,166.27 				"/>
			</g>
		</g>
	</g>
	<g>
		<g>
			<g>
				<polygon fill="#062619" points="605.334,140.476 599.201,145.133 597.811,150.764 605.334,143.7 				"/>
			</g>
		</g>
	</g>
	<g>
		<g>
			<g>
				<polygon fill="#134727" points="605.322,308.246 605.322,324.217 663.468,356.772 657.616,332.509 				"/>
			</g>
		</g>
	</g>
	<g>
		<g>
			<g>
				<polygon fill="#020D0C" points="605.334,140.476 611.467,145.133 612.857,150.764 605.334,143.7 				"/>
			</g>
		</g>
	</g>
	<g>
		<g>
			<g>
				<polygon fill="#062619" points="599.875,142.403 605.334,138.326 605.334,120.413 				"/>
			</g>
		</g>
	</g>
	<g>
		<g>
			<g>
				<polygon fill="#062619" points="610.837,142.403 605.379,138.326 605.334,120.413 				"/>
			</g>
		</g>
	</g>
	<g>
		<g>
			<g>
				<polygon fill="#062619" points="605.334,154.53 604.073,244.81 639.983,266.679 613.821,154.638 605.334,146.448 				"/>
			</g>
		</g>
	</g>
	<g>
		<g>
			<g>
				<polygon fill="#134727" points="604.266,232.311 604.266,238.301 638.445,258.333 635.154,244.965 				"/>
			</g>
		</g>
	</g>
	<g>
		<g>
			<g>
				<polygon fill="#0C1905" points="604.266,210.716 604.266,212.346 629.96,224.421 628.738,219.465 				"/>
			</g>
		</g>
	</g>
	<g>
		<g>
			<g>
				<polygon fill="#0C1905" points="622.281,189.198 623.289,193.034 605.334,185.168 605.334,183.914 				"/>
			</g>
		</g>
	</g>
	<g>
		<g>
			<g>
				
					<rect x="611.22" y="163.131" transform="matrix(0.3251 -0.9457 0.9457 0.3251 252.1976 693.1815)" fill="#87554E" width="1" height="13.555"/>
			</g>
		</g>
	</g>
	<g>
		<g>
			
				<rect x="609.04" y="167.876" transform="matrix(0.9861 -0.166 0.166 0.9861 -19.4427 104.0876)" fill="#87554E" width="8.063" height="1"/>
		</g>
	</g>
	<g>
		<g>
			<g>
				
					<rect x="608.398" y="143.901" transform="matrix(0.6766 -0.7364 0.7364 0.6766 87.5692 496.1836)" fill="#87554E" width="0.5" height="9.001"/>
			</g>
		</g>
	</g>
	<g>
		<g>
			<g>
				
					<rect x="601.973" y="140.405" transform="matrix(0.8282 -0.5604 0.5604 0.8282 24.9014 362.5444)" fill="#87554E" width="3.677" height="0.5"/>
			</g>
		</g>
	</g>
	<g>
		<g>
			<g>
				
					<rect x="590.611" y="178.622" transform="matrix(0.8879 -0.4601 0.4601 0.8879 -15.3482 295.2668)" fill="#87554E" width="14.99" height="1"/>
			</g>
		</g>
	</g>
	<g>
		<g>
			<rect x="596.825" y="177.503" fill="#87554E" width="3.493" height="1"/>
		</g>
	</g>
	<g>
		<g>
			<g>
				<polygon fill="#062619" points="605.334,245.822 605.334,287.071 651.102,304.127 642.275,270.043 				"/>
			</g>
		</g>
	</g>
	<g>
		<g>
			<g>
				<polygon fill="#062619" points="605.334,322.794 605.334,358.894 672.081,386.928 663.468,356.772 				"/>
			</g>
		</g>
	</g>
	<g>
		<g>
			<g>
				<polyline fill="#134727" points="603.428,343.034 603.428,363.874 542.191,380.478 545.801,362.256 603.856,342.893 				"/>
			</g>
		</g>
	</g>
	<g>
		<g>
			<g>
				<polyline fill="#062619" points="605.334,362.87 605.334,372.675 674.254,396.899 672.081,389.645 605.334,362.87 				"/>
			</g>
		</g>
	</g>
	<g>
		<g>
			<g>
				<polyline fill="#0C1905" points="603.856,365.987 603.856,375.792 539.235,397.76 542.191,387.569 603.856,365.987 				"/>
			</g>
		</g>
	</g>
</g>
<g opacity="0.78">
	<g>
		<path fill="#EFEFEC" d="M705.048,71.154C525.752,72.133,347.413,43.446,172.821,1.955H0.573v73.783
			c55.65-1.607,112.661,9.666,168.866,18.048c27.379,4.083,54.566,7.48,81.313,8.368c98.591,3.566,202.411-3.188,301.002,5.051
			c-19.272-4.254-39.103-13.5-61.9-19.051c-1.66-0.403,6.005,0.887,4.365,0.384c-4.678-0.786,5.562,1.083,5.562,1.083
			c62.949,10.569,110.463,14.363,175.377,25.533c15.284,2.558,27.675,11.647,42.721,13.657V70.471
			C713.604,70.892,709.326,71.154,705.048,71.154z"/>
	</g>
</g>
<g opacity="0.86">
	<g>
		<path fill="#EFEFEC" d="M36.331,148.844c0,0,185.342,49.663,300.456,20.702c0,0-33.577,28.312-164.329,28.312
			c0,0-107.43,8.623-128.044-9.064C29.354,175.872,36.331,148.844,36.331,148.844z"/>
	</g>
</g>
<g>
	<g opacity="0.76">
		<path fill="#EFEFEC" d="M263.153,199.96c0,0-77.672,13.546-91.656,6.696C157.514,199.806,186.109,234.598,263.153,199.96z"/>
	</g>
</g>
<g>
	<g opacity="0.76">
		<path fill="#EFEFEC" d="M115.827,134.579c0,0-78.719-4.336-90.808-14.168C12.929,110.579,32.995,150.936,115.827,134.579z"/>
	</g>
</g>
<g>
	<g opacity="0.76">
		<path fill="#EFEFEC" d="M159.524,155.92c0,0-77.696-6.561-90.888-12.354C55.442,137.771,80.643,159.936,159.524,155.92z"/>
	</g>
</g>
<g>
	<path fill="#C4A856" d="M719.849,435.707l-38.879,4.36c0,0-81.417,7.05-98.027,10.992c-16.61,3.941-130.277,14.608-130.277,14.608
		S635.674,439.191,653,437.51s66.583-7.811,66.583-7.811L719.849,435.707z"/>
</g>
<g>
	<path fill="#C4A856" d="M720.014,406.436l-44.235,5.667c0,0-47.202,9.018-65.052,8.333c-17.85-0.684-83.727,11-83.727,11
		s38.238-8.667,47.797-9.667c9.559-1,34.612-4,43.512-4.667C627.209,416.436,720.014,406.436,720.014,406.436z"/>
</g>
<g>
	<polygon fill="#36451E" points="718.934,462.853 505.333,481.52 399.416,491.52 292,500.835 400.415,498.853 575.278,492.186 
		718.934,486.52 	"/>
</g>
<g>
	<polygon fill="#36451E" points="149.05,479.594 152.291,479.259 162.398,478.216 205,479.594 336.786,468.056 207,483.224 	"/>
</g>
<g>
	<polygon fill="#36451E" points="338.058,443.672 449.667,434.479 353.295,439.185 	"/>
</g>
<g>
	<polygon fill="#C4A856" points="546.902,406.513 573.023,401.256 648.459,393.397 	"/>
</g>
<g opacity="0.74">
	<g>
		<polygon fill="#646E2D" points="0.596,424.13 0.547,422.028 45.797,418.165 		"/>
	</g>
</g>
<g opacity="0.63">
	<g>
		<polygon fill="#646E2D" points="1.041,408.754 0.791,405.967 167.268,387.294 		"/>
	</g>
</g>
<g>
	<g>
		<polygon fill="#05180F" points="637.719,489.61 636.015,492.168 625.187,481.259 602.167,448.19 604.894,444.098 621.699,470.809 
					"/>
	</g>
	<g>
		<path fill="#05180F" d="M607.28,440.518l-2.386,3.58l8.014,7.926l10.836,15.716l15.054,20.25l2.483-2.658
			c0,0-11.221-15.599-14.299-22.451s-5.127-23.729-5.213-30.804c-0.086-7.075-9.12,4.264-9.12,4.264l6.525,14.593l8.653,18.051
			L611.799,448.7L607.28,440.518z"/>
	</g>
	<g>
		<path fill="#05180F" d="M634.298,424.545l-9.376,4.093c0,0,2.094,16.276,3.982,22.843c2.189,7.614,10.49,26.675,10.49,26.675
			l2.017,4.804l3.921-1.819c0,0-1.62-3.36-3.724-9.745c0,0-2.322-9.131-2.673-13.723c-0.297-3.883-0.062-9.292,1.43-14.875
			c1.493-5.583,3.708-11.124,5.441-13.909c1.733-2.785,2.897-6.933,2.897-6.933l-9.887,1.905c0,0,2.699,0.937,0.57,10.967
			c-2.129,10.03-5.367,15.259-5.367,15.259l-0.059-10.996L634.298,424.545z"/>
	</g>
	<g>
		<path fill="#05180F" d="M653.513,423.07l6.328,0.278l-4.965,40.518l8.748-16.083l4.201-22.191l3.239,2.159l-5.963,20.771
			c0,0-7.158,12.588-7.754,16.992c-0.596,4.404-0.594,15.116-0.935,15.997c-0.341,0.881-3.893-0.255-3.893-0.255l0.477-34.152
			L653.513,423.07z"/>
	</g>
	<g>
		<polygon fill="#05180F" points="652.34,422.78 649.357,423.008 647.293,480.971 650.617,480.601 		"/>
	</g>
	<g>
		<path fill="#05180F" d="M676.464,429.993c0,0-7.721,39.666-8.005,40.831s-2.98,16.849-3.236,17.048
			c-0.256,0.199,2.444,2.244,2.444,2.244l7.441-20.032c0,0,7.555-16.14,8.833-21.198c1.278-5.058,3.692-11.451,3.692-11.451
			l-4.177-2.784c0,0-0.68,10.257-2.839,16.082c-2.158,5.825-7.924,16.14-8.123,16.254s2.895-16.906,3.719-18.696
			c0.824-1.79,4.685-16.083,4.685-16.083L676.464,429.993z"/>
	</g>
	<g>
		<path fill="#05180F" d="M693.059,442.407"/>
	</g>
	<g>
		<polygon fill="#05180F" points="672.003,428.374 674.645,430.135 667.888,456.902 662.892,486.196 660.931,484.151 
			665.359,455.893 		"/>
	</g>
	<g>
		<path fill="#05180F" d="M690.408,438.523c-0.445,0.436-15.87,41.048-15.991,41.213c-0.121,0.165-4.288,11.962-4.288,11.962
			l1.324,0.966c0,0,7.019-14.662,7.117-14.97s11.605-24.251,14.004-27.192c2.399-2.941,2.777-3.807,2.777-3.807L690.408,438.523z"/>
	</g>
	<g>
		<path fill="#05180F" d="M695.686,447.332c0,0-4.719,10.794-7.425,16.499c-2.635,5.556-7.232,13.262-7.625,14.247
			c0,0-7.414,14.601-7.6,14.879c-0.186,0.278,0.756,1.267,0.756,1.267s10.865-19.629,12.513-20.809
			c1.648-1.18,11.8-14.567,12.365-14.86C699.237,458.261,697.074,448.39,695.686,447.332z"/>
	</g>
</g>
<g>
	<g>
		<path fill="#08251D" d="M616.832,487.855l15.059,3.073v-3.073l-23.757-6.761l-1.422-0.637c-0.183,1.075-0.314,2.166-0.375,3.27
			L616.832,487.855z"/>
		<path fill="#0D3529" d="M579.338,473.103l27,10.623c0.061-1.104,0.192-2.194,0.375-3.27l-27.375-12.271V473.103z"/>
	</g>
	<g>
		<path fill="#0D3529" d="M587.635,468.185l-8.298-4.303v4.303l11.064,2.151l17.08,6.809c0.231-0.772,0.497-1.522,0.793-2.252
			L587.635,468.185z"/>
		<path fill="#08251D" d="M612.222,476.176l-3.948-1.283c-0.296,0.73-0.562,1.48-0.793,2.252l0.653,0.26l23.757,8.503l0.592-3.589
			c0,0-15.867-5.961-23.066-9.996c-0.278,0.562-0.543,1.134-0.795,1.715L612.222,476.176z"/>
		<path fill="#0D3529" d="M586.714,448.823c-3.995-5.839-5.225,8.605-5.225,8.605l13.523,8.525l13.611,8.085
			c0.251-0.581,0.516-1.153,0.795-1.715c-0.466-0.261-0.897-0.514-1.283-0.757C601.773,467.571,590.709,454.663,586.714,448.823z"/>
	</g>
	<g>
		<path fill="#0D3529" d="M608.134,447.433c-1.854-5.474-3.083-11.313-3.186-14.591c-0.102-3.278-1.434-7.376-1.434-7.376
			l-7.171,7.069c0,0,2.766-0.717,6.556,8.81s3.995,15.674,3.995,15.674l-6.147-9.118l-7.786-12.293l-5.532,8.605
			c0,0,10.768,12.383,15.981,16.801c2.024,1.715,5.33,4.118,8.832,6.556c1.312-1.883,2.781-3.642,4.397-5.267
			c-0.544-0.602-1.041-1.179-1.447-1.698C612.792,457.538,609.988,452.907,608.134,447.433z"/>
		<path fill="#08251D" d="M626.934,477.395l4.343,2.879l2.254-3.688c0,0-3.211-1.898-8.503-6.044c0,0-5.131-4.631-8.387-8.239
			c-1.616,1.625-3.085,3.385-4.397,5.267C619.201,472.413,626.934,477.395,626.934,477.395z"/>
	</g>
	<g>
		<path fill="#0D3529" d="M613.554,420.446l-5.42,3.278l12.898,20.284l6.601,10.211c0.76-0.407,1.532-0.796,2.315-1.167
			L613.554,420.446z"/>
		<path fill="#0D3529" d="M625.335,417.885h-3.893l8.81,20.796l1.229,13.671c0.643-0.281,1.291-0.551,1.947-0.809
			c-1.012-5.671-1.537-13.067-1.537-13.067L625.335,417.885z"/>
		<path fill="#08251D" d="M631.891,456.916l-1.943-3.864c-0.783,0.372-1.556,0.76-2.315,1.167l11.941,18.473
			c0,0,3.586-1.024,3.381-1.946c-0.205-0.922-6.146-9.835-8.093-13.83c-0.553-1.136-1.032-3.119-1.434-5.373
			c-0.656,0.258-1.304,0.528-1.947,0.809L631.891,456.916z"/>
	</g>
	<g>
		<path fill="#08251D" d="M635.067,475.356l2.561-2.151l-11.373-18.219c-0.923,0.532-1.83,1.086-2.71,1.672L635.067,475.356z"/>
		<path fill="#0D3529" d="M604.641,425.978l18.904,30.68c0.881-0.586,1.787-1.14,2.71-1.672l-19.258-30.852L604.641,425.978z"/>
	</g>
	<g>
		<path fill="#08251D" d="M651.633,447.426c-1.154,0.089-2.304,0.207-3.451,0.356c0.089,1.173,0.125,1.913,0.1,1.963
			c-0.022,0.045-0.367-0.678-0.896-1.856c-1.045,0.149-2.085,0.328-3.119,0.527c1.578,3.8,2.682,6.47,2.787,6.759
			c0.41,1.127,6.864,15.674,6.761,15.981c-0.102,0.307,3.278,0.512,3.278,0.512l-4.917-20.796
			C652.176,450.872,651.969,449.504,651.633,447.426z"/>
		<path fill="#0D3529" d="M641.009,432.125c-0.307-1.947-5.02-15.981-5.02-15.981l-4.917,0.615c0,0,8.612,20.624,13.195,31.658
			c1.034-0.199,2.074-0.378,3.119-0.527C645.494,443.677,641.249,433.646,641.009,432.125z"/>
		<path fill="#0D3529" d="M647.77,428.334c-1.741-4.917-3.278-11.576-3.278-11.576h-5.02c0,0,5.122,8.913,6.556,14.957
			c1.085,4.572,1.876,12.424,2.153,16.067c1.146-0.149,2.297-0.268,3.451-0.356C650.763,442.042,649.027,431.882,647.77,428.334z"/>
	</g>
	<g>
		<path fill="#08251D" d="M651.766,417.885"/>
	</g>
	<g>
		<path fill="#08251D" d="M648.18,470.439l2.766,0.615l-9.782-21.969c-0.849,0.208-1.689,0.439-2.525,0.681L648.18,470.439z"/>
		<path fill="#0D3529" d="M629.638,417.885h-3.176l9.732,26.584l2.445,5.297c0.836-0.242,1.677-0.473,2.525-0.681l-2.306-5.179
			L629.638,417.885z"/>
	</g>
	<g>
		<path fill="#0D3529" d="M658.154,447.25c-1.087-8.159-2.538-19.927-2.302-22.359c0.365-3.778,0.2-4.708,0.2-4.708l-8.646-4.059
			c-0.083,0.397,3.999,18.515,6.852,31.148C655.557,447.224,656.857,447.221,658.154,447.25z"/>
		<path fill="#08251D" d="M658.154,447.25c-1.297-0.029-2.597-0.026-3.896,0.022c1.525,6.755,2.699,11.944,2.697,12.015
			c-0.009,0.205,3.065,12.332,3.065,12.332l1.638,0.07c0,0-2.29-16.093-2.379-16.404
			C659.246,455.173,658.755,451.761,658.154,447.25z"/>
	</g>
	<g>
		<path fill="#0D3529" d="M663.342,447.433c0.717-1.896,1.742-18.665,2.049-19.223c0.307-0.558-6.966-7.572-8.708-7.683
			c0,0,2.059,11.599,2.971,17.847c0.399,2.739,0.709,6.056,0.95,8.975c0.904,0.055,1.806,0.124,2.704,0.216
			C663.319,447.52,663.329,447.466,663.342,447.433z"/>
		<path fill="#08251D" d="M663.308,447.565c-0.898-0.093-1.8-0.162-2.704-0.216c0.294,3.567,0.485,6.538,0.605,7.109
			c0,0,1.927,16.261,1.927,16.596c0,0.335,1.332,0.635,1.332,0.635S662.69,450.119,663.308,447.565z"/>
	</g>
</g>
<g opacity="0.47">
	<polygon fill="#244560" points="0,309.855 94.729,339.463 138.206,378.734 75.057,387.168 0.791,337.454 	"/>
</g>
<g>
	<path fill="#05180F" d="M693.791,489.1l-19.627-0.832c0,0-5.801-7.359,1.963-10.883c7.764-3.524,13.185-3.715,17.664-0.682
		c4.48,3.033,12.798,12.397,12.798,12.397H693.791z"/>
</g>
<g>
	<path fill="#122F37" d="M669.798,494.999l-40.113-1.701c0,0-11.856-15.039,4.012-22.241c15.868-7.201,26.946-7.593,36.101-1.394
		c9.155,6.199,26.155,25.336,26.155,25.336H669.798z"/>
</g>
<g>
	<polygon fill="#52768E" points="353,281.409 316.528,305.879 330.523,307.27 	"/>
</g>
<g>
	<polygon fill="#52768E" points="173.305,322.794 98.5,342.231 126.387,345.638 	"/>
</g>
<g>
	<polygon fill="#52768E" points="0.791,315.147 88.5,342.231 65.309,345.992 -0.125,321.016 	"/>
</g>
<g opacity="0.71">
	<g>
		<path fill="#FCD6CE" d="M139.663,283.614c-0.75,0.5-15.663,10.725-15.663,10.725l-19.265,9.05L92,301.999L139.663,283.614z"/>
	</g>
</g>
<g>
	<g>
		<path fill="#03190E" d="M103.046,382.008l-0.902,1.354l7.619,10.944l1.125,1.134c0.485-0.072,0.966-0.147,1.442-0.224
			l-3.722-4.368L103.046,382.008z"/>
	</g>
	<g>
		<path fill="#03190E" d="M108.631,378.029c-0.029-2.341-3.018,1.411-3.018,1.411l2.16,4.83l2.864,5.974l-5.305-6.713l-1.496-2.708
			l-0.79,1.185l2.652,2.623l3.586,5.201l3.899,5.246c0.452-0.074,0.899-0.146,1.343-0.216c-1.076-1.534-3.398-4.917-4.171-6.638
			C109.338,385.956,108.66,380.371,108.631,378.029z"/>
	</g>
	<g>
		<path fill="#03190E" d="M115.132,394.87l0.32-0.148c-0.119,0.017-0.24,0.036-0.359,0.054L115.132,394.87z"/>
		<path fill="#03190E" d="M115.197,391.043c0,0-0.769-3.022-0.885-4.542c-0.098-1.285-0.021-3.075,0.473-4.923
			c0.494-1.848,1.227-3.682,1.801-4.603s0.959-2.295,0.959-2.295l-3.272,0.631c0,0,0.893,0.31,0.189,3.63
			c-0.705,3.319-1.776,5.05-1.776,5.05l-0.02-3.639l0.112-4.815l-3.103,1.355c0,0,0.693,5.387,1.318,7.56
			c0.724,2.52,3.472,8.828,3.472,8.828l0.628,1.496c0.12-0.018,0.24-0.037,0.359-0.054l0.978-0.454
			C116.429,394.268,115.893,393.156,115.197,391.043z"/>
	</g>
	<g>
		<path fill="#03190E" d="M120.101,394.372c0.109-0.363,0.111-3.837,0.306-5.277c0.197-1.458,2.566-5.624,2.566-5.624l1.974-6.874
			l-1.072-0.714l-1.39,7.344l-2.896,5.323l1.643-13.41l-2.094-0.092l-0.171,7.954l-0.158,11.303c0,0,0.101,0.031,0.241,0.069
			C119.402,394.363,119.752,394.364,120.101,394.372z"/>
		<path fill="#03190E" d="M119.05,394.374c0.349,0.093,0.966,0.224,1.047,0.016c0.001-0.003,0.002-0.013,0.004-0.017
			C119.752,394.364,119.402,394.363,119.05,394.374z"/>
	</g>
	<g>
		<polygon fill="#03190E" points="118.749,374.953 117.761,375.028 117.078,394.211 118.178,394.089 		"/>
	</g>
	<g>
		<path fill="#03190E" d="M129.207,383.593c0.423-1.674,1.222-3.79,1.222-3.79l-1.383-0.921c0,0-0.225,3.395-0.939,5.323
			c-0.714,1.928-2.623,5.342-2.688,5.379c-0.066,0.038,0.958-5.595,1.231-6.188c0.273-0.593,1.551-5.323,1.551-5.323l-1.467-0.733
			c0,0-2.555,13.128-2.649,13.513c-0.059,0.243-0.435,2.391-0.726,3.965c0.407,0.107,0.813,0.237,1.218,0.391l1.709-4.601
			C126.284,390.608,128.784,385.267,129.207,383.593z"/>
	</g>
	<g>
		<path fill="#03190E" d="M132.225,381.448"/>
	</g>
	<g>
		<path fill="#03190E" d="M123.894,386.245l2.237-8.858l-0.875-0.583l-2.199,9.108l-1.344,8.58c0.252,0.032,0.504,0.074,0.755,0.121
			L123.894,386.245z"/>
	</g>
	<g>
		<path fill="#03190E" d="M132.064,384.127c0.794-0.974,0.919-1.26,0.919-1.26l-1.636-2.705c-0.147,0.144-5.252,13.585-5.292,13.64
			c-0.018,0.025-0.32,0.865-0.641,1.765c0.233,0.109,0.467,0.211,0.699,0.339c0.623-1.306,1.299-2.725,1.316-2.78
			C127.462,393.025,131.271,385.101,132.064,384.127z"/>
	</g>
	<g>
		<path fill="#03190E" d="M133.094,383.078c0,0-1.562,3.573-2.457,5.461c-0.872,1.839-2.394,4.389-2.524,4.715
			c0,0-0.805,1.585-1.505,2.958c0.144,0.087,0.288,0.171,0.431,0.266c1.099-1.933,2.612-4.525,2.95-4.768
			c0.546-0.391,3.906-4.821,4.093-4.918C134.27,386.695,133.554,383.428,133.094,383.078z"/>
	</g>
</g>
<g opacity="0.71">
	<g>
		<polygon fill="#FCD6CE" points="341.5,267.749 320,282.478 324.499,282.421 335.927,276.528 		"/>
	</g>
</g>
<g opacity="0.71">
	<g>
		<polygon fill="#FCD6CE" points="131.527,290.803 135.777,290.803 141.923,284.316 		"/>
	</g>
</g>
<g opacity="0.71">
	<g>
		<polygon fill="#FCD6CE" points="246.817,259.242 224.75,273.742 245.52,264.614 		"/>
	</g>
</g>
<g opacity="0.71">
	<g>
		<polygon fill="#FCD6CE" points="130.934,293.502 107.25,305.252 117.184,305.252 		"/>
	</g>
</g>
<g opacity="0.71">
	<g>
		<polygon fill="#FCD6CE" points="226.5,275.113 238.5,272.249 245,266.492 		"/>
	</g>
</g>
<g>
	<polygon fill="#72A5B2" points="342,265.642 361.676,276.926 351.363,277.969 	"/>
</g>
<g opacity="0.47">
	<g>
		<polygon fill="#244560" points="172.551,318.925 266.413,318.925 295.859,339.014 237.708,355.318 		"/>
	</g>
</g>
<g opacity="0.71">
	<g>
		<polygon fill="#FCD6CE" points="462.75,221.249 437.784,242.855 463,224.499 		"/>
	</g>
</g>
<g opacity="0.71">
	<g>
		<polyline fill="#FCD6CE" points="545.801,203.999 519.34,224.004 546.922,207.517 545.801,203.999 		"/>
	</g>
</g>
<g>
	<path fill="#36451E" d="M56.187,489.059l41.346-1.994c0.089-0.004,0.178-0.005,0.266-0.003l70.279,1.996L99,490.955l-74.646,6.271
		L56.187,489.059z"/>
</g>
<g>
	<g>
		<g>
			<g>
				<path fill="#7F574F" d="M53.495,395.093c-1.94,0.37-3.882,0.808-5.822,1.408v96.892l5.822-5.822V395.093z"/>
			</g>
		</g>
		<g>
			<g>
				<path fill="#664039" d="M47.673,309.123v87.379c1.94-0.6,3.882-1.038,5.822-1.408v-85.971H47.673z"/>
			</g>
		</g>
		<g>
			<g>
				<path fill="#995A50" d="M50.584,309.123h-2.911v87.379c0.971-0.3,1.941-0.561,2.911-0.791V309.123z"/>
			</g>
		</g>
		<g>
			<g>
				<path fill="#D09C92" d="M50.584,395.71c-0.97,0.23-1.94,0.491-2.911,0.791v96.892l2.911-2.911V395.71z"/>
			</g>
		</g>
	</g>
	<g>
		<g>
			<polygon fill="#7A8956" points="51.124,238.789 32.457,316.719 52.457,315.386 31.123,319.052 31.123,321.052 52.457,319.052 
				52.457,325.719 29.457,330.386 21.123,362.719 52.457,356.386 52.343,361.087 21.123,366.386 19.457,371.052 52.457,372.386 			
				"/>
		</g>
	</g>
	<g>
		<g>
			<polygon fill="#505B2E" points="93.808,374.276 52.458,370.456 51.124,238.789 65.791,289.123 54.791,288.789 66.458,292.456 
				67.382,295.443 56.791,295.123 67.791,297.456 79.124,339.456 52.458,337.123 52.458,340.789 82.157,348.653 			"/>
		</g>
	</g>
	<g>
		<g>
			<polygon fill="#7A8956" points="51.124,375.052 51.124,381.718 17.458,381.718 			"/>
		</g>
	</g>
	<g>
		<g>
			<polygon fill="#4E5E47" points="87.623,375.719 52.457,372.386 52.457,375.72 89.362,381.364 			"/>
		</g>
	</g>
	<g>
		<g>
			<polygon fill="#4E5E47" points="99.205,427.043 53.233,419.132 52.904,422.45 100.936,432.887 			"/>
		</g>
	</g>
	<g>
		<g>
			<polygon fill="#96A364" points="51.933,328.477 28.61,333.673 27.118,339.461 52.066,333.673 			"/>
		</g>
	</g>
	<g>
		<g>
			<polygon fill="#424922" points="51.683,297.477 51.683,297.977 51.683,301.242 69.593,304.132 69.206,302.06 			"/>
		</g>
	</g>
	<g>
		<g>
			<polygon fill="#96A364" points="51.625,288.273 38.706,291.069 39.278,288.752 51.625,285.373 			"/>
		</g>
	</g>
	<g>
		<g>
			<polygon fill="#424922" points="52.183,343.227 52.244,349.31 86.229,357.558 83.966,352.61 			"/>
		</g>
	</g>
	<g>
		<g>
			<polygon fill="#424922" points="51.683,277.394 63.269,280.464 62.915,279.252 51.392,274.144 			"/>
		</g>
	</g>
	<g>
		<polyline fill="#505B2E" points="53.495,378.385 96.355,384.857 109.597,426.01 53.495,414.899 53.495,378.385 		"/>
	</g>
	<g>
		<polygon fill="#424922" points="53.495,382.999 53.495,387.666 100.344,397.254 98.372,391.125 		"/>
	</g>
	<g>
		<polygon fill="#7A8956" points="50.584,386.524 16.597,389.333 12.345,404.068 50.584,396.501 		"/>
	</g>
	<g>
		<polygon fill="#7A8956" points="50.584,402.198 12.345,410.369 8.43,418.859 50.584,405.833 		"/>
	</g>
</g>
<g>
	<g>
		<g>
			<polygon fill="#8C5C57" points="116.238,395.722 119.178,394.484 119.178,376.375 117.708,372.97 117.708,336.907 
				116.857,336.907 			"/>
		</g>
	</g>
	<g>
		<g>
			<path fill="#8C5C57" d="M116.55,371.781c-14.913-19.107-19.587-45.815-19.408-46.711l0.739,0.121
				c-0.011,0.2,3.965,26.531,19.259,46.129L116.55,371.781z"/>
		</g>
	</g>
	<g>
		<g>
			<path fill="#8C5C57" d="M118.491,377.268c-0.003-0.205-0.148-20.729,13.7-38.886l0.597,0.455
				c-13.693,17.953-13.55,38.217-13.547,38.419L118.491,377.268z"/>
		</g>
	</g>
	<g>
		<g>
			<path fill="#8C5C57" d="M116.872,342.982c-0.914-8.753-3.982-14.946-6.332-17.59c-1.459-1.642-3.814-3.446-6.092-5.191
				c-2.557-1.959-5.201-3.985-6.616-5.816c-2.661-3.444-3.893-11.892-3.944-12.25l0.742-0.105c0.012,0.085,1.255,8.609,3.795,11.896
				c1.355,1.754,3.96,3.75,6.479,5.68c2.306,1.767,4.689,3.594,6.196,5.289c2.424,2.727,5.585,9.079,6.518,18.01L116.872,342.982z"
				/>
		</g>
	</g>
	<g>
		<g>
			<path fill="#8C5C57" d="M113.387,333.632c-4.809,0-8.008-4.195-8.156-4.394l0.601-0.449c0.038,0.05,3.831,5.007,9.095,3.936
				l0.15,0.734C114.495,333.578,113.931,333.632,113.387,333.632z"/>
		</g>
	</g>
	<g>
		<g>
			<path fill="#8C5C57" d="M117.618,338.322l-0.746-0.072c0.852-8.867,5.14-63.812,5.183-64.366l0.748,0.059
				C122.759,274.496,118.471,329.447,117.618,338.322z"/>
		</g>
	</g>
	<g>
		<g>
			<path fill="#8C5C57" d="M119.58,307.077c-0.086-0.081-2.134-2.049-4.915-7.771c-2.785-5.73-3.568-21.606-3.6-22.279l0.749-0.035
				c0.008,0.163,0.808,16.395,3.525,21.986c2.709,5.575,4.735,7.536,4.755,7.555L119.58,307.077z"/>
		</g>
	</g>
	<g>
		<g>
			<path fill="#8C5C57" d="M116.594,301.644l-0.712-0.236c0.617-1.854,0.196-20.02-0.019-26.863l0.75-0.023
				C116.644,275.53,117.379,299.285,116.594,301.644z"/>
		</g>
	</g>
	<g>
		<g>
			<path fill="#8C5C57" d="M118.491,321.095c-0.128-0.096-3.196-2.415-7.363-8.587c-4.187-6.204-5.9-31.462-5.971-32.534
				l0.748-0.049c0.018,0.26,1.771,26.126,5.845,32.163c4.085,6.052,7.159,8.383,7.189,8.405L118.491,321.095z"/>
		</g>
	</g>
	<g>
		<g>
			<path fill="#8C5C57" d="M109.666,309.094c-10.559-6.831-11.745-21.08-11.756-21.223l0.748-0.057
				c0.01,0.14,1.174,14.023,11.415,20.65L109.666,309.094z"/>
		</g>
	</g>
	<g>
		<g>
			<path fill="#8C5C57" d="M106.381,306.303c-9.102-3.284-10.62-11.194-10.634-11.273l0.738-0.133
				c0.014,0.075,1.469,7.568,10.15,10.701L106.381,306.303z"/>
		</g>
	</g>
	<g>
		<g>
			<path fill="#8C5C57" d="M122.025,359.414l-0.046-0.748c0.098-0.007,9.931-0.778,17.619-13.44l0.641,0.389
				C132.334,358.634,122.443,359.389,122.025,359.414z"/>
		</g>
	</g>
	<g>
		<g>
			<path fill="#8C5C57" d="M109.763,360.047l-0.745-0.084c1.818-16.208-1.739-22.808-1.775-22.872l0.654-0.367
				C108.05,336.994,111.613,343.556,109.763,360.047z"/>
		</g>
	</g>
	<g>
		<g>
			<path fill="#8C5C57" d="M110.244,350.594l-0.659-0.357c2.749-5.078,2.547-12.387,2.117-13.062l0.165-0.105l0.268-0.491
				C113.15,337.132,113.041,345.428,110.244,350.594z"/>
		</g>
	</g>
	<g>
		<g>
			<path fill="#8C5C57" d="M111.858,326.94c-0.271-7.793-4.556-14.214-4.599-14.278l0.621-0.42
				c0.044,0.065,4.448,6.666,4.728,14.673L111.858,326.94z"/>
		</g>
	</g>
	<g>
		<g>
			<path fill="#8C5C57" d="M117.513,348.719l-0.535-0.525c0.178-0.181,17.788-18.351,18.852-39.166l0.749,0.039
				C135.5,330.169,117.692,348.536,117.513,348.719z"/>
		</g>
	</g>
	<g>
		<g>
			<path fill="#8C5C57" d="M118.425,328.856l-0.72-0.209c0.014-0.049,0.043-0.195,0.091-0.425c1.316-6.328,4.443-17.627,10.599-22.2
				c7.378-5.48,10.246-20.043,7.79-28.914l0.723-0.199c2.519,9.1-0.455,24.062-8.065,29.715c-4.415,3.28-8.077,11.005-10.312,21.751
				C118.477,328.637,118.441,328.803,118.425,328.856z"/>
		</g>
	</g>
	<g>
		<g>
			<path fill="#8C5C57" d="M120.052,301.9l-0.001-0.75c0.027,0,2.694-0.057,5.332-3.152c2.471-2.898,5.416-9.108,5.416-22.228h0.75
				C131.548,301.603,120.521,301.9,120.052,301.9z"/>
		</g>
	</g>
	<g>
		<g>
			<path fill="#8C5C57" d="M125.495,298.201c-3.744-7.645,1.056-15.434,1.105-15.511l0.635,0.398
				c-0.046,0.074-4.624,7.52-1.066,14.782L125.495,298.201z"/>
		</g>
	</g>
	<g>
		<g>
			<path fill="#8C5C57" d="M132.559,301.744c-0.134-0.186-3.244-4.646-0.421-12.328l0.704,0.258
				c-2.677,7.288,0.296,11.591,0.327,11.634L132.559,301.744z"/>
		</g>
	</g>
	<g>
		<g>
			<path fill="#8C5C57" d="M121.176,322.735c-0.957,0-1.56-0.193-1.608-0.21l0.236-0.712c0.314,0.105,7.717,2.335,12.329-11.799
				l0.713,0.232c-1.952,5.981-4.659,9.881-8.046,11.588C123.381,322.551,122.11,322.735,121.176,322.735z"/>
		</g>
	</g>
	<g>
		<g>
			<path fill="#8C5C57" d="M118.325,333.653c-0.405,0-0.646-0.025-0.66-0.027l0.085-0.745c0.298,0.033,7.29,0.731,9.788-6.62
				l0.71,0.242C126.015,333.073,120.275,333.653,118.325,333.653z"/>
		</g>
	</g>
	<g>
		<g>
			<path fill="#8C5C57" d="M129.053,333.485c-0.358,0-0.572-0.013-0.585-0.014l0.051-0.748c0.083,0.006,8.413,0.503,9.718-5.188
				l0.731,0.168C137.737,333.07,131.08,333.485,129.053,333.485z"/>
		</g>
	</g>
	<g>
		<g>
			<path fill="#8C5C57" d="M134.99,297.631l-0.052-0.748c0.259-0.019,6.349-0.519,6.929-6.456l0.746,0.072
				C141.971,297.074,135.06,297.626,134.99,297.631z"/>
		</g>
	</g>
	<g>
		<g>
			<path fill="#8C5C57" d="M134.551,322.546c-0.64,0-1.06-0.132-1.094-0.143l0.229-0.714c0.013,0.004,1.352,0.409,2.861-0.414
				c1.617-0.883,2.837-2.791,3.628-5.673l0.724,0.199c-0.851,3.097-2.2,5.163-4.013,6.143
				C136.002,322.422,135.173,322.546,134.551,322.546z"/>
		</g>
	</g>
	<g>
		<g>
			<path fill="#8C5C57" d="M101.983,343.315c-7.349-0.95-9.611-8.86-9.633-8.94l0.723-0.199c0.021,0.074,2.158,7.511,9.006,8.396
				L101.983,343.315z"/>
		</g>
	</g>
	<g>
		<g>
			<path fill="#8C5C57" d="M99.513,335.399l-0.042-0.748l0.021,0.374l-0.023-0.374c0.041-0.003,1.01-0.077,1.738-0.959
				c0.693-0.839,0.938-2.122,0.729-3.813l0.744-0.092c0.237,1.913-0.068,3.393-0.906,4.397
				C100.832,335.312,99.567,335.396,99.513,335.399z"/>
		</g>
	</g>
	<g>
		<g>
			<path fill="#8C5C57" d="M102.002,354.972c-0.241,0-0.487-0.017-0.738-0.053c-1.754-0.252-3.291-1.401-4.569-3.417l0.634-0.402
				c1.153,1.82,2.511,2.855,4.036,3.076c2.351,0.347,4.358-1.381,4.378-1.398l0.494,0.564
				C106.154,353.414,104.349,354.972,102.002,354.972z"/>
		</g>
	</g>
	<g>
		<g>
			<path fill="#8C5C57" d="M133.231,353.214c-1.923-4.271,1.29-8.899,1.427-9.095l0.613,0.433c-0.031,0.045-3.102,4.478-1.356,8.354
				L133.231,353.214z"/>
		</g>
	</g>
	<g>
		<g>
			<path fill="#8C5C57" d="M96.989,314.624c-3.192,0-5.181-2.155-5.832-3.43c-0.322-0.629-0.356-1.076-0.104-1.329l0.53,0.531
				c0.041-0.041,0.053-0.082,0.055-0.095c-0.022,0.183,0.305,1.013,1.21,1.884c0.811,0.781,2.565,2.022,5.221,1.6l0.119,0.74
				C97.771,314.593,97.372,314.624,96.989,314.624z"/>
		</g>
	</g>
	<g>
		<g>
			<path fill="#8C5C57" d="M133.616,306.324c-2.063,0-3.488-1.132-3.556-1.188l0.471-0.583c0.017,0.014,1.682,1.328,3.892,0.953
				c1.882-0.314,3.624-1.722,5.178-4.182l0.634,0.4c-1.676,2.654-3.594,4.176-5.701,4.523
				C134.217,306.301,133.91,306.324,133.616,306.324z"/>
		</g>
	</g>
</g>
<path fill="#244560" d="M655.667,470.144c0,0,5.954,2.086,6.912,2.641C663.417,473.27,661.35,469.53,655.667,470.144z"/>
<path fill="#244560" d="M636.813,474.637c0,0,4.513,1.932,5.239,2.446C642.687,477.534,641.12,474.069,636.813,474.637z"/>
<path fill="#244560" d="M651.32,477.301c0,0,4.513,1.932,5.239,2.446C657.194,480.197,655.627,476.732,651.32,477.301z"/>
<path fill="#244560" d="M632.857,484.114c0,0,4.513,1.932,5.239,2.446C638.731,487.01,637.165,483.545,632.857,484.114z"/>
<path fill="#244560" d="M668.107,481.187c0,0,4.513,1.932,5.239,2.446C673.981,484.084,672.415,480.619,668.107,481.187z"/>
<path fill="#244560" d="M645.091,483.738c0,0,4.513,1.932,5.239,2.446C650.965,486.634,649.398,483.169,645.091,483.738z"/>
<path fill="#244560" d="M661.793,486.779c0,0,4.513,1.932,5.239,2.446C667.667,489.675,666.1,486.21,661.793,486.779z"/>
<path fill="#244560" d="M678.227,488.905c0,0,4.513,1.932,5.239,2.446C684.101,491.801,682.535,488.336,678.227,488.905z"/>
<path fill="#244560" d="M667.168,474.264c0,0,3.6,1.512,4.179,1.915C671.854,476.531,670.604,473.819,667.168,474.264z"/>
</svg>
